<svg width="141" height="175" viewBox="0 0 141 175" fill="none" xmlns="http://www.w3.org/2000/svg">
<g clip-path="url(#clip0_35_454)">
<path d="M70.3697 73.588C70.3697 73.588 83.047 116.665 56.7173 144.73" stroke="#35958A" stroke-width="2.5" stroke-miterlimit="10" stroke-linecap="round"/>
<path d="M66.0122 76.1953C65.8206 75.4173 65.6978 74.9896 65.6919 74.9691C65.3283 73.7244 65.4717 72.3858 66.0905 71.2472C66.7093 70.1085 67.7529 69.263 68.9922 68.8963C70.2314 68.5295 71.565 68.6716 72.7 69.2912C73.8351 69.9108 74.6788 70.9574 75.0458 72.201C77.3106 80.8392 78.4028 89.7449 78.2927 98.6765C78.1225 118.612 71.8893 135.697 60.2668 148.086C59.3798 149.03 58.1559 149.582 56.8639 149.62C55.5719 149.659 54.3177 149.18 53.3767 148.291C52.4358 147.401 51.8853 146.173 51.8461 144.876C51.8069 143.579 52.2823 142.319 53.1677 141.374C63.1623 130.721 68.3336 116.42 68.5386 98.8706C68.5907 93.221 68.1428 87.5778 67.2002 82.0078" stroke="#35958A" stroke-width="2.5" stroke-miterlimit="10" stroke-linecap="round"/>
<path d="M83.0376 92.5095C83.1371 94.4952 83.1867 96.5715 83.1684 98.7186C82.9874 119.909 76.2955 138.14 63.8163 151.443C62.0429 153.333 59.5943 154.438 57.0091 154.516C54.4238 154.593 51.9138 153.637 50.031 151.856C48.1484 150.076 47.0472 147.618 46.9698 145.023C46.8923 142.427 47.845 139.908 49.6182 138.017C58.7476 128.287 63.473 115.097 63.6629 98.8132C63.7552 91.235 62.8628 83.6771 61.0084 76.3305C60.2848 73.8407 60.5749 71.1644 61.8149 68.8891C63.055 66.6138 65.1436 64.9255 67.6224 64.1948C70.1012 63.464 72.7675 63.7507 75.036 64.9917C77.3045 66.2327 78.9898 68.3267 79.7219 70.814C80.8981 75.1491 81.7549 79.5653 82.2853 84.0267" stroke="#35958A" stroke-width="2.5" stroke-miterlimit="10" stroke-linecap="round"/>
<path d="M57.724 84.5441C57.3752 82.23 56.9062 79.9358 56.319 77.6709C55.3577 74.3433 55.6 70.7816 57.0028 67.6161C58.4057 64.4505 60.8787 61.8852 63.9843 60.3741C67.0898 58.863 70.6278 58.5034 73.972 59.3591C77.3162 60.2148 80.2511 62.2306 82.2573 65.0497" stroke="#35958A" stroke-width="2.5" stroke-miterlimit="10" stroke-linecap="round"/>
<path d="M83.9071 126.138C80.6255 136.825 74.9696 146.625 67.3658 154.799C64.7058 157.634 61.0329 159.292 57.1551 159.409C53.2772 159.525 49.5122 158.09 46.6881 155.42C43.8641 152.75 42.2123 149.062 42.0961 145.169C41.9799 141.277 43.4087 137.497 46.0684 134.662C54.3331 125.853 58.6121 113.772 58.7873 98.7559C58.8221 95.1248 58.6216 91.4954 58.1873 87.8904" stroke="#35958A" stroke-width="2.5" stroke-miterlimit="10" stroke-linecap="round"/>
<path d="M84.3978 69.4268C86.9201 78.9959 88.1465 88.8626 88.044 98.7606C88.0136 106.391 87.0746 113.991 85.2469 121.397" stroke="#35958A" stroke-width="2.5" stroke-miterlimit="10" stroke-linecap="round"/>
<path d="M40.3316 155.364C37.9674 151.685 36.8983 147.317 37.2946 142.957C37.691 138.596 39.5301 134.495 42.5187 131.306C49.9184 123.419 53.7513 112.449 53.9117 98.6985C53.9738 92.064 53.2064 85.448 51.6276 79.0053C50.2399 74.213 50.7412 69.0683 53.0277 64.6368" stroke="#35958A" stroke-width="2.5" stroke-miterlimit="10" stroke-linecap="round"/>
<path d="M55.2727 61.1984C57.5171 58.4412 60.4679 56.3508 63.8076 55.1521C67.1474 53.9534 70.7495 53.6918 74.2263 54.3954C77.7031 55.0991 80.9229 56.7414 83.5391 59.1456C86.1553 61.5497 88.0689 64.6247 89.0739 68.0394C91.7269 78.0738 93.0205 88.4214 92.9196 98.8027C92.7173 122.502 85.1082 143.026 70.9153 158.155C67.892 161.365 63.8805 163.461 59.5267 164.104" stroke="#35958A" stroke-width="2.5" stroke-miterlimit="10" stroke-linecap="round"/>
<path d="M32.737 149.17C32.5151 147.946 32.3853 146.707 32.3486 145.463C32.2439 142.25 32.7751 139.047 33.9115 136.041C35.0479 133.035 36.7668 130.285 38.9689 127.95C45.5034 120.985 48.8906 111.125 49.0361 98.6411C49.0965 92.4704 48.3894 86.3162 46.931 80.3214C45.6428 75.8368 45.6609 71.0756 46.9831 66.6009C48.3053 62.1263 50.8763 58.1254 54.392 55.0714C57.9077 52.0174 62.2211 50.0382 66.8219 49.3677C71.4228 48.6972 76.1187 49.3636 80.3542 51.288" stroke="#35958A" stroke-width="2.5" stroke-miterlimit="10" stroke-linecap="round"/>
<path d="M92.5736 131.047C88.7882 142.39 82.6116 152.781 74.4649 161.511C73.0308 163.038 71.4064 164.372 69.6321 165.481" stroke="#35958A" stroke-width="2.5" stroke-miterlimit="10" stroke-linecap="round"/>
<path d="M87.3442 56.0639C90.3532 58.9797 92.5598 62.6272 93.7498 66.6522C96.531 77.1522 97.8917 87.9803 97.7952 98.8447C97.7612 107.638 96.6284 116.392 94.4234 124.901" stroke="#35958A" stroke-width="2.5" stroke-miterlimit="10" stroke-linecap="round"/>
<path d="M43.6568 105.702C43.9713 103.342 44.1395 100.965 44.1604 98.5838C44.2115 92.872 43.5632 87.1756 42.2303 81.6226C40.1152 74.1553 41.0309 66.1511 44.7774 59.3597C48.5238 52.5683 54.7961 47.5422 62.2231 45.3804C69.6501 43.2185 77.6276 44.0966 84.4115 47.8227C91.1955 51.5489 96.234 57.8199 98.4256 65.265C99.8127 70.3502 100.842 75.5272 101.505 80.7574" stroke="#35958A" stroke-width="2.5" stroke-miterlimit="10" stroke-linecap="round"/>
<path d="M27.4793 143.669C27.7161 136.551 30.5405 129.765 35.4191 124.594C39.0275 120.625 41.5485 115.785 42.7358 110.545" stroke="#35958A" stroke-width="2.5" stroke-miterlimit="10" stroke-linecap="round"/>
<path d="M102.601 93.6461C102.66 95.3506 102.686 97.1007 102.671 98.8868C102.447 125.096 93.921 147.911 78.0144 164.868" stroke="#35958A" stroke-width="2.5" stroke-miterlimit="10" stroke-linecap="round"/>
<path d="M23.1913 138.24C24.4081 131.857 27.4194 125.958 31.8694 121.238C36.6742 116.118 39.1688 108.476 39.2848 98.5264C39.3124 94.2928 38.9376 90.0663 38.1654 85.9042" stroke="#35958A" stroke-width="2.5" stroke-miterlimit="10" stroke-linecap="round"/>
<path d="M37.2116 81.7194C35.0978 73.0288 36.4531 63.8528 40.988 56.152C45.5229 48.4512 52.8777 42.8361 61.4811 40.5065C70.0846 38.1769 79.2543 39.3175 87.0313 43.6846C94.8083 48.0516 100.576 55.2989 103.102 63.8779C106.141 75.3088 107.636 87.0981 107.547 98.9289C107.333 123.984 99.8358 146.125 85.7937 163.384" stroke="#35958A" stroke-width="2.5" stroke-miterlimit="10" stroke-linecap="round"/>
<path d="M66.5291 34.6198C67.805 34.4929 69.0866 34.4293 70.3737 34.4291C78.7805 34.4654 86.9532 37.2121 93.6874 42.2644C100.422 47.3166 105.361 54.4072 107.778 62.4909C109.056 67.138 110.05 71.8595 110.752 76.6288" stroke="#35958A" stroke-width="2.5" stroke-miterlimit="10" stroke-linecap="round"/>
<path d="M19.5504 132.776C21.3267 127.215 24.3235 122.126 28.3198 117.883C32.2595 113.684 34.308 107.153 34.4092 98.4691C34.4395 93.6586 33.9046 88.8614 32.8154 84.1767C30.0666 74.2579 31.3094 63.6518 36.276 54.6442C41.2427 45.6365 49.5355 38.9484 59.3675 36.0211C60.476 35.6938 61.5956 35.4166 62.7264 35.1895" stroke="#35958A" stroke-width="2.5" stroke-miterlimit="10" stroke-linecap="round"/>
<path d="M111.754 84.544C112.234 89.3376 112.456 94.1535 112.422 98.971C112.224 122.153 106.032 142.983 94.3838 160.033" stroke="#35958A" stroke-width="2.5" stroke-miterlimit="10" stroke-linecap="round"/>
<path d="M16.4147 127.241C18.4439 122.548 21.2713 118.246 24.7703 114.527C27.8448 111.25 29.4471 105.828 29.5335 98.4117C29.5529 94.0428 29.0722 89.6861 28.1008 85.4273C24.9891 74.2289 26.4127 62.2497 32.0612 52.1005C37.7097 41.9513 47.1252 34.4551 58.2555 31.2456C69.3858 28.0361 81.3286 29.3735 91.4809 34.9665C101.633 40.5594 109.172 49.9544 112.454 61.1037C115.753 73.4653 117.382 86.2158 117.298 99.0131C117.122 119.548 112.42 138.336 103.534 154.467" stroke="#35958A" stroke-width="2.5" stroke-miterlimit="10" stroke-linecap="round"/>
<path d="M13.7104 121.62C15.747 117.821 18.272 114.308 21.2208 111.17C23.399 108.849 24.5874 104.418 24.6579 98.3543C24.675 94.4203 24.2467 90.4971 23.3814 86.6602C21.8923 81.2962 21.3378 75.7142 21.7423 70.1606" stroke="#35958A" stroke-width="2.5" stroke-miterlimit="10" stroke-linecap="round"/>
<path d="M22.4549 64.6822C24.4448 53.8678 30.0054 44.0416 38.2396 36.7888C46.4739 29.5359 56.9018 25.2793 67.8411 24.7055C78.7804 24.1318 89.5933 27.2743 98.5356 33.6262C107.478 39.9781 114.028 49.169 117.13 59.7164C120.557 72.5436 122.253 85.7747 122.173 99.0551C122.029 115.999 118.912 131.816 113.003 146.032" stroke="#35958A" stroke-width="2.5" stroke-miterlimit="10" stroke-linecap="round"/>
<path d="M25.5139 44.2189C29.4954 38.0422 34.7011 32.7546 40.8067 28.6856C46.9124 24.6167 53.7872 21.8534 61.0029 20.568C68.2186 19.2826 75.6206 19.5026 82.748 21.2143C89.8753 22.9259 96.5753 26.0926 102.43 30.517" stroke="#35958A" stroke-width="2.5" stroke-miterlimit="10" stroke-linecap="round"/>
<path d="M11.3935 115.909C13.2275 113.019 15.3295 110.308 17.6713 107.815C18.6507 106.771 19.7194 103.723 19.7823 98.2974C19.7921 94.7925 19.4149 91.2972 18.6574 87.8758C15.1099 74.9211 16.5409 61.1012 22.6667 49.1561" stroke="#35958A" stroke-width="2.5" stroke-miterlimit="10" stroke-linecap="round"/>
<path d="M106.259 33.6715C113.612 40.29 118.993 48.8252 121.806 58.3292C125.362 71.6219 127.125 85.3336 127.049 99.0972C127 110.826 125.421 122.499 122.351 133.816" stroke="#35958A" stroke-width="2.5" stroke-miterlimit="10" stroke-linecap="round"/>
<path d="M8 110.297C9.40085 108.378 10.9148 106.545 12.5337 104.807C12.8165 104.242 13.4263 102.248 13.4703 98.4269C13.4775 95.9372 13.2642 93.4518 12.8327 91" stroke="#EAA928" stroke-width="2.5" stroke-miterlimit="10" stroke-linecap="round"/>
<path d="M9.4364 110.111C10.8373 108.192 12.3512 106.359 13.9701 104.621C14.2529 104.055 14.8627 102.061 14.9067 98.2405C14.9139 95.7508 14.7006 93.2654 14.2691 90.8136" stroke="#35958A" stroke-width="2.5" stroke-miterlimit="10" stroke-linecap="round"/>
<path d="M117.839 39.3223C121.696 44.6602 124.618 50.6186 126.482 56.9419C130.168 70.7 131.999 84.8924 131.925 99.1393C131.877 105.719 131.385 112.288 130.453 118.801" stroke="#35958A" stroke-width="2.5" stroke-miterlimit="10" stroke-linecap="round"/>
<path d="M11.1036 84.6492C4.91044 55.0578 22.5896 24.8768 51.8667 16.2356C62.4674 13.1011 74.3731 11.9562 85 15C95.6269 18.0438 106.643 24.2218 114 32.5" stroke="#EAA928" stroke-width="2.5" stroke-miterlimit="10" stroke-linecap="round"/>
<path d="M13.1036 85.6492C6.91044 56.0578 24.5896 25.8768 53.8667 17.2356C64.4674 14.1011 75.7367 14.0529 86.3636 17.0967C96.9904 20.1406 106.538 26.1512 113.895 34.4294" stroke="#35958A" stroke-width="2.5" stroke-miterlimit="10" stroke-linecap="round"/>
</g>
<defs>
<clipPath id="clip0_35_454">
<rect width="141" height="175" fill="white"/>
</clipPath>
</defs>
</svg>
