<svg width="1920" height="720" viewBox="0 0 1920 720" fill="none" xmlns="http://www.w3.org/2000/svg">
<g clip-path="url(#clip0_29_283)">
<path d="M1381.6 392.806L1396.22 380.549L1390.83 353.347L1381.61 350.346L1389.95 348.907L1389.04 344.311L1379.56 347.659L1388.41 341.164L1383.48 316.28L1377.81 317.023L1382.96 313.647L1374.61 271.497L1366.01 314.874L1371.39 325.891L1364.88 320.579L1362.81 331.023L1371.39 329.654L1361.8 336.162L1360.8 341.172L1360.29 338.56L1351.07 335.559L1359.41 334.12L1358.5 329.524L1349.02 332.871L1357.87 326.377L1352.94 301.492L1347.27 302.236L1352.42 298.86L1344.07 256.709L1335.47 300.087L1340.85 311.104L1334.34 305.792L1332.27 316.236L1340.85 314.866L1331.26 321.375L1325.22 351.829L1316.98 310.252L1308.39 353.629L1313.77 364.646L1307.26 359.334L1305.19 369.778L1313.77 368.409L1304.17 374.917L1297.57 408.233L1304.63 420.274L1296.78 412.228L1294.96 421.39L1306.24 435.861L1293.8 427.248L1289.9 446.949H1344.07L1341.06 431.767L1323.98 431.561L1338.59 419.305L1333.46 393.407H1350.45L1347.52 408.194H1401.69L1398.68 393.012L1381.6 392.806ZM1330.34 380.249L1330.79 379.919L1330.56 378.768L1333.33 382.318L1330.34 380.249ZM1331.71 366.732L1327.27 362.179L1326.37 357.612L1331.71 366.732ZM1325.07 352.574L1324.66 354.69L1324.93 355.157L1320.19 355.778L1325.07 352.574ZM1358.93 378.113L1355.34 374.431L1357.19 372.879L1360.27 378.129L1358.93 378.113ZM1353.99 375.563L1353.5 378.048L1351.06 378.018L1353.99 375.563ZM1358.52 393.407H1360.98L1363.87 397.105L1358.52 393.407Z" fill="#002F47"/>
<path d="M1556.6 424.04L1553.1 406.37L1533.22 406.131L1550.23 391.866L1543.95 360.206L1533.22 356.713L1542.93 355.039L1541.87 349.69L1530.85 353.586L1541.15 346.027L1535.41 317.065L1528.81 317.93L1534.8 314.001L1525.08 264.943L1515.08 315.429L1521.33 328.251L1513.76 322.069L1511.35 334.224L1521.33 332.63L1510.17 340.205L1506.49 358.784L1502.33 337.806L1491.6 334.313L1501.31 332.639L1500.25 327.29L1489.22 331.186L1499.52 323.627L1493.78 294.665L1487.18 295.53L1493.18 291.601L1483.46 242.543L1474.03 290.096L1472.02 279.945L1465.42 280.81L1471.42 276.881L1461.7 227.823L1451.69 278.309L1457.95 291.131L1450.38 284.949L1447.97 297.104L1457.95 295.51L1446.78 303.085L1439.1 341.86L1447.32 355.874L1438.18 346.51L1436.07 357.174L1449.19 374.015L1434.72 363.991L1430.17 386.92H1454.85L1451.93 401.64H1498L1493.56 424.04L1556.6 424.04ZM1498.87 401.64H1505.18L1512.58 411.135L1498.87 401.64ZM1503.53 373.724L1502.48 378.98L1505.37 383.897L1501.78 383.853L1501.56 383.629L1501.52 383.85L1492.59 383.743L1492.44 383.018L1503.53 373.724ZM1479.71 305.851L1476.66 303.363L1475.41 297.038L1479.71 305.851ZM1474.92 310.996L1479.71 310.23L1473.84 314.212L1467.46 316.466L1474.92 310.996ZM1468.33 386.92H1469.54L1470.95 388.735L1468.33 386.92Z" fill="#002F47"/>
<path d="M1381.6 404.093L1396.22 391.837L1390.83 364.634L1381.61 361.633L1389.95 360.194L1389.04 355.598L1379.56 358.946L1388.41 352.451L1383.48 327.567L1377.81 328.31L1382.96 324.935L1374.61 282.784L1366.01 326.161L1371.39 337.178L1364.88 331.866L1362.81 342.31L1371.39 340.941L1361.8 347.449L1360.8 352.459L1360.29 349.847L1351.07 346.846L1359.41 345.407L1358.5 340.811L1349.02 344.158L1357.87 337.664L1352.94 312.779L1347.27 313.523L1352.42 310.147L1344.07 267.996L1335.47 311.374L1340.85 322.391L1334.34 317.079L1332.27 327.523L1340.85 326.153L1331.26 332.662L1325.22 363.116L1316.98 321.539L1308.39 364.916L1313.77 375.934L1307.26 370.622L1305.19 381.065L1313.77 379.696L1304.17 386.204L1297.57 419.52L1304.63 431.561L1296.78 423.515L1294.96 432.678L1306.24 447.148L1293.8 438.535L1289.9 458.236H1344.07L1341.06 443.054L1323.98 442.848L1338.59 430.592L1333.46 404.694H1350.45L1347.52 419.481H1401.69L1398.68 404.299L1381.6 404.093ZM1330.34 391.536L1330.79 391.207L1330.56 390.056L1333.33 393.605L1330.34 391.536ZM1331.71 378.019L1327.27 373.466L1326.37 368.899L1331.71 378.019ZM1325.07 363.861L1324.66 365.977L1324.93 366.444L1320.19 367.065L1325.07 363.861ZM1358.93 389.4L1355.34 385.719L1357.19 384.167L1360.27 389.416L1358.93 389.4ZM1353.99 386.851L1353.5 389.335L1351.06 389.305L1353.99 386.851ZM1358.52 404.694H1360.98L1363.87 408.393L1358.52 404.694Z" fill="url(#paint0_linear_29_283)"/>
<path d="M1556.6 435.327L1553.1 417.657L1533.22 417.418L1550.23 403.153L1543.95 371.493L1533.22 368L1542.93 366.326L1541.87 360.977L1530.85 364.873L1541.15 357.314L1535.41 328.352L1528.81 329.217L1534.8 325.288L1525.08 276.23L1515.08 326.716L1521.33 339.538L1513.76 333.356L1511.35 345.511L1521.33 343.917L1510.17 351.492L1506.49 370.071L1502.33 349.093L1491.6 345.6L1501.31 343.926L1500.25 338.577L1489.22 342.473L1499.52 334.914L1493.78 305.952L1487.18 306.817L1493.18 302.888L1483.46 253.83L1474.03 301.383L1472.02 291.232L1465.42 292.097L1471.42 288.168L1461.7 239.11L1451.69 289.596L1457.95 302.418L1450.38 296.236L1447.97 308.391L1457.95 306.797L1446.78 314.372L1439.1 353.147L1447.32 367.161L1438.18 357.796L1436.07 368.461L1449.19 385.302L1434.72 375.278L1430.17 398.207H1454.85L1451.93 412.927H1498L1493.56 435.327H1556.6ZM1498.87 412.927H1505.18L1512.58 422.422L1498.87 412.927ZM1503.53 385.011L1502.49 390.267L1505.37 395.184L1501.78 395.14L1501.56 394.916L1501.52 395.137L1492.59 395.03L1492.44 394.305L1503.53 385.011ZM1479.71 317.138L1476.66 314.65L1475.41 308.325L1479.71 317.138ZM1474.92 322.283L1479.71 321.517L1473.84 325.499L1467.46 327.753L1474.92 322.283ZM1468.33 398.207H1469.54L1470.95 400.022L1468.33 398.207Z" fill="url(#paint1_linear_29_283)"/>
<path d="M2.55985 629.257C2.55985 629.257 1107.95 340.662 1920 363.922V732.782H0.00415039L2.55985 629.257Z" fill="#008696"/>
<path d="M0.00415039 732.782H1920V386.565C1636.67 381.238 1425.65 405.068 1363.47 430.883C1298.3 457.943 1515.54 489.227 1532.11 547.685C1548.69 606.142 1359.85 525.732 1359.85 525.732L1076.58 473.674C1076.58 473.674 1204.05 527.438 1012.06 523.116C910.704 520.835 628.927 531.238 385.678 541.151C153.895 589.75 2.55985 629.257 2.55985 629.257L0.00415039 732.782Z" fill="url(#paint2_linear_29_283)"/>
<path d="M946.622 439.146C946.622 439.146 1285.53 493.422 1447.81 732.782H1696.99C1696.99 732.782 1467.04 486.342 979.51 434.202L946.622 439.146Z" fill="#07949F"/>
<path d="M946.622 439.146C946.622 439.146 1285.53 493.422 1447.81 732.782H1696.99C1696.99 732.782 1467.04 486.342 979.51 434.202L946.622 439.146Z" fill="url(#paint3_linear_29_283)"/>
<path d="M1307.25 424.04C1296.29 409.252 1354.68 395.937 1406.69 387.245L1741.08 462.702L1437.65 382.449C1461.52 379.013 1479.46 376.993 1480.91 376.831C1464.47 378.092 1448.01 379.426 1431.54 380.833L1431.53 380.832L1392.23 383.982L1393.28 384.22C700.447 447.729 5.1156 629.257 5.1156 629.257L2.55988 732.782H1028.74C1291.1 670.919 1518.85 602.079 1564.81 580.403C1662.64 534.265 1326.42 449.902 1307.25 424.04Z" fill="url(#paint4_linear_29_283)"/>
<path d="M902.405 557.146L898.476 537.315L876.164 537.047L895.251 521.038L888.211 485.508L876.167 481.589L887.062 479.709L885.873 473.706L873.502 478.079L885.058 469.596L878.618 437.093L871.214 438.064L877.937 433.655L867.029 378.6L855.803 435.258L862.826 449.648L854.327 442.709L851.624 456.35L862.826 454.561L850.294 463.062L846.77 480.848L830.634 475.596L845.746 472.989L844.096 464.662L826.938 470.727L842.967 458.961L834.034 413.875L823.763 415.222L833.089 409.106L817.958 332.738L802.387 411.329L812.128 431.289L800.339 421.665L796.589 440.587L812.128 438.106L794.745 449.897L784.855 499.811L773.507 442.537L753.089 435.891L771.559 432.705L769.543 422.528L748.57 429.94L768.162 415.559L757.244 360.454L744.691 362.1L756.089 354.625L737.596 261.285L725.961 320.007L725.327 316.81L711.767 318.588L724.079 310.514L704.103 209.692L683.546 313.448L696.406 339.8L680.842 327.094L675.892 352.075L696.406 348.799L673.457 364.367L657.668 444.056L674.552 472.858L655.775 453.612L651.432 475.529L678.408 510.14L648.656 489.538L639.319 536.663H683.034L677.619 563.991H772.139L768.887 580.403H867.029L862.421 557.146L902.405 557.146ZM784.034 503.956L782.785 510.258L795.574 532.074L781.351 517.496L778.829 530.225L767.585 530.089L765.489 519.51L784.034 503.956ZM730.47 381.738L730.132 381.462L730.282 381.353L730.47 381.738ZM709.802 536.663H711.646L713.807 539.436L709.802 536.663ZM796.58 558.987L796.28 557.471L798.495 560.313L796.58 558.987ZM852.998 542.663L847.186 538.638L848.803 537.281L852.998 542.663ZM832.956 550.573L832.564 552.547L830.63 552.523L832.956 550.573Z" fill="#002F47"/>
<path d="M902.405 557.146L898.476 537.315L876.164 537.047L895.251 521.038L888.211 485.508L876.167 481.589L887.062 479.709L885.873 473.706L873.502 478.079L885.058 469.596L878.618 437.093L871.214 438.064L877.937 433.655L867.029 378.6L855.803 435.258L862.826 449.648L854.327 442.709L851.624 456.35L862.826 454.561L850.294 463.062L846.77 480.848L830.634 475.596L845.746 472.989L844.096 464.662L826.938 470.727L842.967 458.961L834.034 413.875L823.763 415.222L833.089 409.106L817.958 332.738L802.387 411.329L812.128 431.289L800.339 421.665L796.589 440.587L812.128 438.106L794.745 449.897L784.855 499.811L773.507 442.537L753.089 435.891L771.559 432.705L769.543 422.528L748.57 429.94L768.162 415.559L757.244 360.454L744.691 362.1L756.089 354.625L737.596 261.285L725.961 320.007L725.327 316.81L711.767 318.588L724.079 310.514L704.103 209.692L683.546 313.448L696.406 339.8L680.842 327.094L675.892 352.075L696.406 348.799L673.457 364.367L657.668 444.056L674.552 472.858L655.775 453.612L651.432 475.529L678.408 510.14L648.656 489.538L639.319 536.663H683.034L677.619 563.991H772.139L768.887 580.403H867.029L862.421 557.146L902.405 557.146ZM784.034 503.956L782.785 510.258L795.574 532.074L781.351 517.496L778.829 530.225L767.585 530.089L765.489 519.51L784.034 503.956ZM730.47 381.738L730.132 381.462L730.282 381.353L730.47 381.738ZM709.802 536.663H711.646L713.807 539.436L709.802 536.663ZM796.58 558.987L796.28 557.471L798.495 560.313L796.58 558.987ZM852.998 542.663L847.186 538.638L848.803 537.281L852.998 542.663ZM832.956 550.573L832.564 552.547L830.63 552.523L832.956 550.573Z" fill="url(#paint5_linear_29_283)"/>
<path d="M0.00415039 563.822C0.00415039 563.822 849.826 428.595 1920 667.728V732.782H0.00415039V563.822Z" fill="#0C5566"/>
<path d="M842.11 629.257C954.561 592.292 658.099 554.862 591.707 547.685C525.316 540.508 702.923 527.387 702.923 527.387L703.805 526.282C272.769 520.429 0.00415039 563.822 0.00415039 563.822V732.782H1234.41C1234.41 732.782 693.879 725.102 556.591 717.422C419.303 709.742 729.659 666.222 842.11 629.257Z" fill="url(#paint6_linear_29_283)"/>
<path d="M1538.54 629.257C1486.22 637.439 1138.57 693.731 1210.13 703.016C1271.28 710.95 1502.18 727.989 1568.11 732.782H1920V667.728C1749.06 629.53 1583.75 600.897 1426.61 579.725C1429.84 580.541 1590.33 621.156 1538.54 629.257Z" fill="url(#paint7_linear_29_283)"/>
<path d="M1427.58 579.855C1424.88 579.153 1303.05 590.691 1145.64 612.906C1145.68 612.885 1242.89 569.793 1087.03 560.408C931.134 551.022 615.316 547.608 639.902 541.635C664.488 535.662 702.923 527.387 702.923 527.387C698.564 527.982 630.977 533.338 621.185 541.635C611.393 549.932 934.541 562.115 1051.25 568.942C1159.76 575.289 1071.99 614.482 922.556 648.616C796.489 671.543 671.204 699.801 579.298 732.782H1203.74C1203.74 732.782 1368.6 597.498 1491.05 588.767L1427.58 579.855Z" fill="#008696"/>
<path d="M1427.58 579.855C1424.88 579.153 1303.05 590.691 1145.64 612.906C1145.68 612.885 1242.89 569.793 1087.03 560.408C931.134 551.022 615.316 547.608 639.902 541.635C664.488 535.662 702.923 527.387 702.923 527.387C698.564 527.982 630.977 533.338 621.185 541.635C611.393 549.932 934.541 562.115 1051.25 568.942C1159.76 575.289 1071.99 614.482 922.556 648.616C796.489 671.543 671.204 699.801 579.298 732.782H1203.74C1203.74 732.782 1368.6 597.498 1491.05 588.767L1427.58 579.855Z" fill="url(#paint8_linear_29_283)"/>
<path d="M899.935 611.182C881.723 631.662 680.357 672.319 711.769 679.022C741.734 685.416 1475.11 712.062 1540.3 596.162C1324.35 562.875 1106.75 541.339 888.455 531.65C886.475 532.309 884.608 532.966 882.852 533.622C889.296 544.656 916.028 593.085 899.935 611.182Z" fill="url(#paint9_linear_29_283)"/>
<path d="M1444.94 461.093L1355.81 610.542V643.308H1534.08V610.542L1444.94 461.093Z" fill="#9CC1B2"/>
<path d="M1444.94 461.093L1355.81 610.542V643.308H1534.08V610.542L1444.94 461.093Z" fill="url(#paint10_linear_29_283)"/>
<path d="M1781.36 610.365H1534.08V643.308H1781.36V610.365Z" fill="#85AA9A"/>
<path d="M1781.36 610.365H1534.08V643.308H1781.36V610.365Z" fill="url(#paint11_linear_29_283)"/>
<path d="M1444.94 461.093L1355.81 610.542V629.649H1319.86L1315.07 624.024L1440.63 413.911H1678.33L1798.13 622.819L1792.86 629.649H1543.98L1444.94 461.093Z" fill="#C9DBBD"/>
<path d="M1319.86 629.649L1436.32 444.845L1444.94 461.093L1355.81 610.542V629.649H1319.86Z" fill="url(#paint12_linear_29_283)"/>
<path d="M1440.63 413.911L1556.6 618.497L1543.98 629.649H1792.86L1798.13 622.819L1678.33 413.911H1440.63Z" fill="url(#paint13_linear_29_283)"/>
<path d="M1455.38 598.739H1434.5V621.992H1455.38V598.739Z" fill="#EAAA2A"/>
<path d="M1434.5 621.992H1455.38V598.739H1434.5V621.992Z" fill="url(#paint14_linear_29_283)"/>
<path d="M1457.3 597.131V623.599H1432.58V597.131H1457.3ZM1436.42 600.345V605.721H1453.47V600.345H1436.42ZM1453.47 620.385V608.935H1436.42V620.385L1453.47 620.385Z" fill="#C9DBBD"/>
<path d="M1421.39 598.739H1400.5V621.992H1421.39V598.739Z" fill="#EAAA2A"/>
<path d="M1400.5 621.992H1421.39V598.739H1400.5V621.992Z" fill="url(#paint15_linear_29_283)"/>
<path d="M1423.31 597.131V623.599H1398.59V597.131H1423.31ZM1402.42 600.345V605.721H1419.47V600.345H1402.42ZM1419.47 620.385V608.935H1402.42V620.385L1419.47 620.385Z" fill="#C9DBBD"/>
<path d="M1489.38 598.739H1468.49V621.992H1489.38V598.739Z" fill="#EAAA2A"/>
<path d="M1468.49 621.992H1489.38V598.739H1468.49V621.992Z" fill="url(#paint16_linear_29_283)"/>
<path d="M1491.3 597.131V623.599H1466.58V597.131H1491.3ZM1470.41 600.345V605.721H1487.46V600.345H1470.41ZM1487.46 620.385V608.935H1470.41V620.385L1487.46 620.385Z" fill="#C9DBBD"/>
<path d="M1619.38 444.845L1637.11 477.387H1682.16V398.645H1619.38V444.845Z" fill="#C9DBBD"/>
<path d="M1682.16 398.645H1637.11V477.387H1682.16V398.645Z" fill="url(#paint17_linear_29_283)"/>
<path d="M1691.19 372.263H1610.36V398.645H1691.19V372.263Z" fill="#9CC1B2"/>
<path d="M1691.19 372.263H1641.43V398.645H1691.19V372.263Z" fill="url(#paint18_linear_29_283)"/>
<path d="M1610.36 372.263V398.645H1619.38V444.845L1637.11 477.387V398.645H1641.43V372.263H1610.36Z" fill="url(#paint19_linear_29_283)"/>
<path d="M1440.63 413.911H1619.38V398.645H1610.36V372.263H1641.43H1691.19V398.645H1682.16V420.596L1798.13 622.819L1792.86 629.648H1781.36V643.308H1534.08H1355.81V629.648H1319.86L1315.07 624.024L1440.63 413.911Z" fill="url(#paint20_linear_29_283)"/>
<path d="M281.09 583.743L253.052 574.617L258.713 569.869L277.692 566.595L274.175 548.844L259.347 554.085L257.915 546.858L271.767 536.689L252.724 440.576L237.259 442.604L236.667 439.619L250.71 430.41L218.453 267.609L208.724 316.713L190.093 319.156L210.189 305.978L177.584 141.42L156.342 248.634L143.059 181.597L109.506 350.944L129.738 392.399L129.112 392.824L105.093 373.217L102.316 387.235L78.3991 395.688L77.7608 392.466L105.927 371.792L85.1821 267.093L61.3307 270.221L82.988 256.019L47.8501 78.6748L31.7192 160.089L0 0V603.751L2.65344 607.155L0 605.318V653.808H49.4986L37.322 715.265H147.745L158.695 729.315H253.611L301.907 688.808L281.09 583.743ZM80.3722 586.468L81.9273 589.121L77.2764 589.065L80.3722 586.468ZM165.022 353.778L164.584 353.421L164.784 353.29L165.022 353.778ZM98.4447 406.772L97.0147 413.99L124.447 409.609L123.729 413.234L111.472 421.548L81.5962 411.824L81.1852 409.75L98.4447 406.772ZM27.2795 182.497L25.8068 189.93L13.4805 191.546L27.2795 182.497ZM76.0629 653.808L75.9208 654.525L74.8854 653.808H76.0629Z" fill="#001322"/>
<path d="M281.09 583.743L253.052 574.617L258.713 569.869L277.692 566.595L274.175 548.844L259.347 554.085L257.915 546.858L271.767 536.689L252.724 440.576L237.259 442.604L236.667 439.619L250.71 430.41L218.453 267.609L208.724 316.713L190.093 319.156L210.189 305.978L177.584 141.42L156.342 248.634L143.059 181.597L109.506 350.944L129.738 392.399L129.112 392.824L105.093 373.217L102.316 387.235L78.3991 395.688L77.7608 392.466L105.927 371.792L85.1821 267.093L61.3307 270.221L82.988 256.019L47.8501 78.6748L31.7192 160.089L0 0V603.751L2.65344 607.155L0 605.318V653.808H49.4986L37.322 715.265H147.745L158.695 729.315H253.611L301.907 688.808L281.09 583.743ZM80.3722 586.468L81.9273 589.121L77.2764 589.065L80.3722 586.468ZM165.022 353.778L164.584 353.421L164.784 353.29L165.022 353.778ZM98.4447 406.772L97.0147 413.99L124.447 409.609L123.729 413.234L111.472 421.548L81.5962 411.824L81.1852 409.75L98.4447 406.772ZM27.2795 182.497L25.8068 189.93L13.4805 191.546L27.2795 182.497ZM76.0629 653.808L75.9208 654.525L74.8854 653.808H76.0629Z" fill="url(#paint21_linear_29_283)"/>
<path d="M367.465 626.794L334.506 611.845L348.738 573.32H0V734.296H207.058H302.812H314.27L310.765 721.073L367.465 626.794Z" fill="#002F47"/>
<path d="M367.465 626.794L334.506 611.845L348.738 573.32H0V734.296H207.058H302.812H314.27L310.765 721.073L367.465 626.794Z" fill="url(#paint22_linear_29_283)"/>
<path d="M0 565.703C0 565.703 382.198 560.793 344.552 575.524C306.905 590.256 265.165 603.172 265.165 603.172C265.165 603.172 403.477 612.353 358.465 636.087C313.452 659.821 140.767 734.296 140.767 734.296H0V565.703Z" fill="#0C5566"/>
<path d="M154.68 734.296L305.268 706.507C305.268 706.507 315.089 726.931 275.805 734.296H154.68Z" fill="#0C5566"/>
<path d="M154.68 734.296L305.268 706.507C305.268 706.507 315.089 726.931 275.805 734.296H154.68Z" fill="url(#paint23_linear_29_283)"/>
<path d="M50.7416 592.475C11.4578 586.49 277.692 567.706 277.692 567.706L278.156 566.617C181.508 563.575 15.9044 565.508 1.07247 565.69L0 566.815V635.561C0 635.561 146.223 608.281 186.598 595.515C226.973 582.75 90.0253 598.46 50.7416 592.475Z" fill="url(#paint24_linear_29_283)"/>
<path d="M93.8445 720.402C38.7382 726.695 215.515 659.003 246.069 637.724C276.623 616.445 0 660.659 0 660.659V734.296H140.767C140.767 734.296 201.301 708.189 260.031 681.963L260.031 681.963C260.031 681.963 148.951 714.109 93.8445 720.402Z" fill="url(#paint25_linear_29_283)"/>
<path d="M277.693 566.595L154.68 621.997L344.63 571.848C344.63 571.848 341.278 568.432 277.693 566.595Z" fill="url(#paint26_linear_29_283)"/>
<path d="M1908.68 92.7143L1879.79 238.5L1871.99 199.087L1838.35 368.829L1850.89 394.508L1848.57 396.077L1847.37 402.129L1833.93 391.154L1825.83 432.022L1841.96 429.446L1839.89 439.891L1821.85 452.13L1813.99 491.813L1803.7 439.882L1785.56 442.262L1802.03 431.46L1775.3 296.58L1747.8 435.385L1765.01 470.639L1747.92 456.689L1731.62 374.452L1715.36 456.52L1710.18 430.347L1691.09 526.704L1699.33 543.587L1697.92 544.537L1697.5 546.665L1688.58 539.377L1683.98 562.577L1694.69 560.866L1693.7 565.864L1681.72 573.991L1667.05 647.998L1674.81 661.221L1673.92 665.708L1665.3 656.872L1661.26 677.226L1669.53 687.835L1667.81 696.552L1658.69 690.236L1650.01 734H1920V149.873L1908.68 92.7143ZM1749.94 492.902L1740.05 494.198L1753.59 485.319L1753.43 484.526L1765.01 482.678L1749.94 492.902ZM1802.38 550.416L1797.69 548.892L1802.85 548.001L1802.38 550.416ZM1806.63 528.939L1805.38 535.269L1791.16 540.292L1806.63 528.939Z" fill="#001322"/>
<path d="M88.264 696.848L86.839 689.659L103.016 686.868L99.775 670.512L84.141 676.038L82.951 670.034L97.557 659.313L80.01 570.752L62.162 573.093L63.543 572.079L63.348 571.094L78.154 561.385L48.432 411.377L40.067 453.594L14.418 324.143L0.00402832 396.893V511.654L2.96703 517.725L0.00402832 515.306V531.587L2.96703 531.114L0.00402832 533.124V734.552H112.464L106.147 702.668L88.264 696.848Z" fill="#001322"/>
</g>
<defs>
<linearGradient id="paint0_linear_29_283" x1="1345.8" y1="458.236" x2="1345.8" y2="267.997" gradientUnits="userSpaceOnUse">
<stop stop-color="white" stop-opacity="0.3"/>
<stop offset="0.58602" stop-color="#59B3CB" stop-opacity="0"/>
</linearGradient>
<linearGradient id="paint1_linear_29_283" x1="1493.39" y1="435.327" x2="1493.39" y2="239.11" gradientUnits="userSpaceOnUse">
<stop stop-color="white" stop-opacity="0.3"/>
<stop offset="0.58602" stop-color="#59B3CB" stop-opacity="0"/>
</linearGradient>
<linearGradient id="paint2_linear_29_283" x1="1274.96" y1="1105.2" x2="750.773" y2="197.275" gradientUnits="userSpaceOnUse">
<stop stop-color="#003B58"/>
<stop offset="0.85484" stop-color="#008696" stop-opacity="0"/>
</linearGradient>
<linearGradient id="paint3_linear_29_283" x1="1321.81" y1="732.782" x2="1321.81" y2="434.202" gradientUnits="userSpaceOnUse">
<stop offset="0.52688" stop-color="#008696" stop-opacity="0.8"/>
<stop offset="0.99462" stop-color="#008696" stop-opacity="0"/>
</linearGradient>
<linearGradient id="paint4_linear_29_283" x1="871.82" y1="376.831" x2="871.82" y2="732.782" gradientUnits="userSpaceOnUse">
<stop stop-color="#F7E783" stop-opacity="0.7"/>
<stop offset="0.68817" stop-color="#5080BE" stop-opacity="0"/>
</linearGradient>
<linearGradient id="paint5_linear_29_283" x1="770.862" y1="580.403" x2="770.862" y2="209.692" gradientUnits="userSpaceOnUse">
<stop stop-color="white" stop-opacity="0.25"/>
<stop offset="0.58602" stop-color="#59B3CB" stop-opacity="0"/>
</linearGradient>
<linearGradient id="paint6_linear_29_283" x1="0.00415039" y1="629.26" x2="1234.41" y2="629.26" gradientUnits="userSpaceOnUse">
<stop stop-color="#042430" stop-opacity="0.8"/>
<stop offset="1" stop-color="#0C5566" stop-opacity="0"/>
</linearGradient>
<linearGradient id="paint7_linear_29_283" x1="1671.44" y1="876.291" x2="1476.46" y2="538.573" gradientUnits="userSpaceOnUse">
<stop offset="0.43548" stop-color="#042430" stop-opacity="0.8"/>
<stop offset="1" stop-color="#0C5566" stop-opacity="0"/>
</linearGradient>
<linearGradient id="paint8_linear_29_283" x1="579.298" y1="630.084" x2="1491.05" y2="630.084" gradientUnits="userSpaceOnUse">
<stop offset="0.45699" stop-color="#0C5566" stop-opacity="0.8"/>
<stop offset="0.99462" stop-color="#0C5566" stop-opacity="0"/>
</linearGradient>
<linearGradient id="paint9_linear_29_283" x1="1124.38" y1="531.65" x2="1124.38" y2="686.206" gradientUnits="userSpaceOnUse">
<stop stop-color="#F7E783" stop-opacity="0.5"/>
<stop offset="0.68817" stop-color="#5080BE" stop-opacity="0"/>
</linearGradient>
<linearGradient id="paint10_linear_29_283" x1="1444.94" y1="461.093" x2="1444.94" y2="643.308" gradientUnits="userSpaceOnUse">
<stop stop-color="#557F6C"/>
<stop offset="1" stop-color="#9CC1B2" stop-opacity="0"/>
</linearGradient>
<linearGradient id="paint11_linear_29_283" x1="1657.72" y1="610.365" x2="1657.72" y2="643.308" gradientUnits="userSpaceOnUse">
<stop stop-color="#527062"/>
<stop offset="1" stop-color="#5083C2" stop-opacity="0"/>
</linearGradient>
<linearGradient id="paint12_linear_29_283" x1="1382.4" y1="444.845" x2="1382.4" y2="629.649" gradientUnits="userSpaceOnUse">
<stop stop-color="#81897A"/>
<stop offset="1" stop-color="#5083C2" stop-opacity="0"/>
</linearGradient>
<linearGradient id="paint13_linear_29_283" x1="1712.3" y1="668.642" x2="1560.84" y2="355.726" gradientUnits="userSpaceOnUse">
<stop stop-color="#81897A"/>
<stop offset="1" stop-color="#5083C2" stop-opacity="0"/>
</linearGradient>
<linearGradient id="paint14_linear_29_283" x1="1444.94" y1="598.739" x2="1444.94" y2="621.992" gradientUnits="userSpaceOnUse">
<stop stop-color="#A06E17"/>
<stop offset="1" stop-color="#5083C2" stop-opacity="0"/>
</linearGradient>
<linearGradient id="paint15_linear_29_283" x1="1410.94" y1="598.739" x2="1410.94" y2="621.992" gradientUnits="userSpaceOnUse">
<stop stop-color="#A06E17"/>
<stop offset="1" stop-color="#5083C2" stop-opacity="0"/>
</linearGradient>
<linearGradient id="paint16_linear_29_283" x1="1478.93" y1="598.739" x2="1478.93" y2="621.992" gradientUnits="userSpaceOnUse">
<stop stop-color="#A06E17"/>
<stop offset="1" stop-color="#5083C2" stop-opacity="0"/>
</linearGradient>
<linearGradient id="paint17_linear_29_283" x1="1685.6" y1="475.72" x2="1646.17" y2="394.258" gradientUnits="userSpaceOnUse">
<stop stop-color="#81897A"/>
<stop offset="1" stop-color="#5083C2" stop-opacity="0"/>
</linearGradient>
<linearGradient id="paint18_linear_29_283" x1="1679.34" y1="404.378" x2="1659.55" y2="363.491" gradientUnits="userSpaceOnUse">
<stop stop-color="#557F6C"/>
<stop offset="1" stop-color="#9CC1B2" stop-opacity="0"/>
</linearGradient>
<linearGradient id="paint19_linear_29_283" x1="1610.36" y1="424.825" x2="1641.43" y2="424.825" gradientUnits="userSpaceOnUse">
<stop stop-color="#F7E783" stop-opacity="0.5"/>
<stop offset="0.68817" stop-color="#5080BE" stop-opacity="0"/>
</linearGradient>
<linearGradient id="paint20_linear_29_283" x1="1728.35" y1="687.751" x2="1474.78" y2="385.283" gradientUnits="userSpaceOnUse">
<stop stop-color="#042430" stop-opacity="0.8"/>
<stop offset="0.59677" stop-color="#0C5566" stop-opacity="0"/>
</linearGradient>
<linearGradient id="paint21_linear_29_283" x1="150.953" y1="729.315" x2="150.953" y2="0" gradientUnits="userSpaceOnUse">
<stop stop-color="white" stop-opacity="0.4"/>
<stop offset="0.58602" stop-color="#59B3CB" stop-opacity="0"/>
</linearGradient>
<linearGradient id="paint22_linear_29_283" x1="82.999" y1="782.216" x2="239.888" y2="510.476" gradientUnits="userSpaceOnUse">
<stop offset="0.53226" stop-opacity="0.2"/>
<stop offset="1" stop-color="#5083C2" stop-opacity="0"/>
</linearGradient>
<linearGradient id="paint23_linear_29_283" x1="154.68" y1="720.402" x2="306.359" y2="720.402" gradientUnits="userSpaceOnUse">
<stop stop-color="#042430" stop-opacity="0.8"/>
<stop offset="1" stop-color="#0C5566" stop-opacity="0"/>
</linearGradient>
<linearGradient id="paint24_linear_29_283" x1="0" y1="600.24" x2="278.156" y2="600.24" gradientUnits="userSpaceOnUse">
<stop stop-color="#042430" stop-opacity="0.8"/>
<stop offset="1" stop-color="#0C5566" stop-opacity="0"/>
</linearGradient>
<linearGradient id="paint25_linear_29_283" x1="0" y1="683.115" x2="260.031" y2="683.115" gradientUnits="userSpaceOnUse">
<stop stop-color="#042430" stop-opacity="0.8"/>
<stop offset="1" stop-color="#0C5566" stop-opacity="0"/>
</linearGradient>
<linearGradient id="paint26_linear_29_283" x1="344.63" y1="594.296" x2="154.68" y2="594.296" gradientUnits="userSpaceOnUse">
<stop stop-color="#F7E783" stop-opacity="0.5"/>
<stop offset="0.68817" stop-color="#5080BE" stop-opacity="0"/>
</linearGradient>
<clipPath id="clip0_29_283">
<rect width="1920" height="720" fill="white"/>
</clipPath>
</defs>
</svg>
