<svg width="186" height="189" viewBox="0 0 186 189" fill="none" xmlns="http://www.w3.org/2000/svg">
<g clip-path="url(#clip0_43_222)">
<path d="M166.946 160.969C166.946 158.76 165.155 156.969 162.946 156.969H151.752C149.543 156.969 147.752 155.178 147.752 152.969V141.775C147.752 139.566 145.961 137.775 143.752 137.775H139.194C136.985 137.775 135.194 139.566 135.194 141.775V152.969C135.194 155.178 133.403 156.969 131.194 156.969H120C117.791 156.969 116 158.76 116 160.969V165.527C116 167.736 117.791 169.527 120 169.527H131.194C133.403 169.527 135.194 171.318 135.194 173.527V184.721C135.194 186.93 136.985 188.721 139.194 188.721H143.752C145.961 188.721 147.752 186.93 147.752 184.721V173.527C147.752 171.318 149.543 169.527 151.752 169.527H162.946C165.155 169.527 166.946 167.736 166.946 165.527V160.969Z" fill="#EAA928"/>
</g>
<g clip-path="url(#clip1_43_222)">
<path d="M169 160.969C169 158.76 167.209 156.969 165 156.969H153.806C151.597 156.969 149.806 155.178 149.806 152.969V141.775C149.806 139.566 148.015 137.775 145.806 137.775H141.248C139.039 137.775 137.248 139.566 137.248 141.775V152.969C137.248 155.178 135.457 156.969 133.248 156.969H122.054C119.845 156.969 118.054 158.76 118.054 160.969V165.527C118.054 167.736 119.845 169.527 122.054 169.527H133.248C135.457 169.527 137.248 171.318 137.248 173.527V184.721C137.248 186.93 139.039 188.721 141.248 188.721H145.806C148.015 188.721 149.806 186.93 149.806 184.721V173.527C149.806 171.318 151.597 169.527 153.806 169.527H165C167.209 169.527 169 167.736 169 165.527V160.969Z" fill="#35958A"/>
</g>
<g style="mix-blend-mode:multiply" opacity="0.5" clip-path="url(#clip2_43_222)">
<path d="M169 160.969C169 158.76 167.209 156.969 165 156.969H153.806C151.597 156.969 149.806 155.178 149.806 152.969V141.775C149.806 139.566 148.015 137.775 145.806 137.775H141.248C139.039 137.775 137.248 139.566 137.248 141.775V152.969C137.248 155.178 135.457 156.969 133.248 156.969H122.054C119.845 156.969 118.054 158.76 118.054 160.969V165.527C118.054 167.736 119.845 169.527 122.054 169.527H133.248C135.457 169.527 137.248 171.318 137.248 173.527V184.721C137.248 186.93 139.039 188.721 141.248 188.721H145.806C148.015 188.721 149.806 186.93 149.806 184.721V173.527C149.806 171.318 151.597 169.527 153.806 169.527H165C167.209 169.527 169 167.736 169 165.527V160.969Z" fill="#35958A"/>
</g>
<g clip-path="url(#clip3_43_222)">
<path d="M27 64.2751C27 62.4373 25.5102 60.9474 23.6724 60.9474H20.8277C18.6186 60.9474 16.8277 59.1566 16.8277 56.9474V54.1029C16.8277 52.265 15.3379 50.7751 13.5 50.7751V50.7751C11.6622 50.7751 10.1723 52.265 10.1723 54.1029V56.9474C10.1723 59.1566 8.38145 60.9474 6.17231 60.9474H3.32765C1.48984 60.9474 0 62.4373 0 64.2751V64.2751C0 66.1129 1.48984 67.6027 3.32765 67.6027H6.17231C8.38145 67.6027 10.1723 69.3936 10.1723 71.6027V74.4475C10.1723 76.2853 11.6622 77.7752 13.5 77.7752V77.7752C15.3379 77.7752 16.8277 76.2853 16.8277 74.4475V71.6027C16.8277 69.3936 18.6186 67.6027 20.8277 67.6027H23.6724C25.5102 67.6027 27 66.1129 27 64.2751V64.2751Z" fill="#EAA928"/>
</g>
<g clip-path="url(#clip4_43_222)">
<path d="M28.0887 64.2751C28.0887 62.4373 26.5989 60.9474 24.7611 60.9474H21.9164C19.7073 60.9474 17.9164 59.1566 17.9164 56.9474V54.1029C17.9164 52.265 16.4265 50.7751 14.5887 50.7751V50.7751C12.7509 50.7751 11.261 52.265 11.261 54.1029V56.9474C11.261 59.1566 9.47013 60.9474 7.26099 60.9474H4.41633C2.57852 60.9474 1.08868 62.4373 1.08868 64.2751V64.2751C1.08868 66.1129 2.57852 67.6027 4.41633 67.6027H7.26099C9.47013 67.6027 11.261 69.3936 11.261 71.6027V74.4475C11.261 76.2853 12.7509 77.7752 14.5887 77.7752V77.7752C16.4265 77.7752 17.9164 76.2853 17.9164 74.4475V71.6027C17.9164 69.3936 19.7073 67.6027 21.9164 67.6027H24.7611C26.5989 67.6027 28.0887 66.1129 28.0887 64.2751V64.2751Z" fill="#35958A"/>
</g>
<g style="mix-blend-mode:multiply" opacity="0.5" clip-path="url(#clip5_43_222)">
<path d="M28.0887 64.2751C28.0887 62.4373 26.5989 60.9474 24.7611 60.9474H21.9164C19.7073 60.9474 17.9164 59.1566 17.9164 56.9474V54.1029C17.9164 52.265 16.4265 50.7751 14.5887 50.7751V50.7751C12.7509 50.7751 11.261 52.265 11.261 54.1029V56.9474C11.261 59.1566 9.47013 60.9474 7.26099 60.9474H4.41633C2.57852 60.9474 1.08868 62.4373 1.08868 64.2751V64.2751C1.08868 66.1129 2.57852 67.6027 4.41633 67.6027H7.26099C9.47013 67.6027 11.261 69.3936 11.261 71.6027V74.4475C11.261 76.2853 12.7509 77.7752 14.5887 77.7752V77.7752C16.4265 77.7752 17.9164 76.2853 17.9164 74.4475V71.6027C17.9164 69.3936 19.7073 67.6027 21.9164 67.6027H24.7611C26.5989 67.6027 28.0887 66.1129 28.0887 64.2751V64.2751Z" fill="#35958A"/>
</g>
<g clip-path="url(#clip6_43_222)">
<path d="M184.721 15.8604C184.721 13.7013 182.971 11.9509 180.811 11.9509H176.77C174.561 11.9509 172.77 10.1601 172.77 7.95092V3.90955C172.77 1.75037 171.02 0 168.86 0V0C166.701 0 164.951 1.75037 164.951 3.90955V7.95092C164.951 10.1601 163.16 11.9509 160.951 11.9509H156.909C154.75 11.9509 153 13.7013 153 15.8604V15.8604C153 18.0196 154.75 19.7699 156.909 19.7699H160.951C163.16 19.7699 164.951 21.5607 164.951 23.7699V27.8114C164.951 29.9706 166.701 31.7209 168.86 31.7209V31.7209C171.02 31.7209 172.77 29.9706 172.77 27.8114V23.7699C172.77 21.5608 174.561 19.7699 176.77 19.7699H180.811C182.971 19.7699 184.721 18.0196 184.721 15.8604V15.8604Z" fill="#EAA928"/>
</g>
<g clip-path="url(#clip7_43_222)">
<path d="M186 15.8604C186 13.7013 184.25 11.9509 182.091 11.9509H178.049C175.84 11.9509 174.049 10.1601 174.049 7.95092V3.90955C174.049 1.75037 172.299 0 170.14 0V0C167.98 0 166.23 1.75037 166.23 3.90955V7.95092C166.23 10.1601 164.439 11.9509 162.23 11.9509H158.189C156.029 11.9509 154.279 13.7013 154.279 15.8604V15.8604C154.279 18.0196 156.029 19.7699 158.189 19.7699H162.23C164.439 19.7699 166.23 21.5607 166.23 23.7699V27.8114C166.23 29.9706 167.98 31.7209 170.14 31.7209V31.7209C172.299 31.7209 174.049 29.9706 174.049 27.8114V23.7699C174.049 21.5608 175.84 19.7699 178.049 19.7699H182.091C184.25 19.7699 186 18.0196 186 15.8604V15.8604Z" fill="#35958A"/>
</g>
<g style="mix-blend-mode:multiply" opacity="0.5" clip-path="url(#clip8_43_222)">
<path d="M186 15.8604C186 13.7013 184.25 11.9509 182.091 11.9509H178.049C175.84 11.9509 174.049 10.1601 174.049 7.95092V3.90955C174.049 1.75037 172.299 0 170.14 0V0C167.98 0 166.23 1.75037 166.23 3.90955V7.95092C166.23 10.1601 164.439 11.9509 162.23 11.9509H158.189C156.029 11.9509 154.279 13.7013 154.279 15.8604V15.8604C154.279 18.0196 156.029 19.7699 158.189 19.7699H162.23C164.439 19.7699 166.23 21.5607 166.23 23.7699V27.8114C166.23 29.9706 167.98 31.7209 170.14 31.7209V31.7209C172.299 31.7209 174.049 29.9706 174.049 27.8114V23.7699C174.049 21.5608 175.84 19.7699 178.049 19.7699H182.091C184.25 19.7699 186 18.0196 186 15.8604V15.8604Z" fill="#35958A"/>
</g>
<g filter="url(#filter0_d_43_222)">
<path d="M87.1649 37.4824L45.1441 96.1691C44.3091 97.3353 45.0575 98.9638 46.4485 99.0073L77.9993 99.9944C79.3177 100.036 80.0843 101.518 79.3948 102.692L50.5934 158.41C49.5345 160.213 51.7867 162.058 53.2659 160.599L121.918 91.7516C122.989 90.6948 122.412 88.8541 120.957 88.6862L84.363 84.4639C82.9054 84.2958 82.3293 82.4506 83.4049 81.3951L131.684 34.0165C132.912 32.8122 134.942 30.8751 133.275 31.1055L88.3599 36.7513C88.1213 36.7858 87.8923 36.8684 87.6869 36.9941C87.4814 37.1198 87.3038 37.2859 87.1649 37.4824Z" fill="#EAA928"/>
<path d="M94.7394 36.408L53.472 92.5895C53.2862 92.8424 53.173 93.141 53.1443 93.4535C53.1157 93.7659 53.1728 94.0803 53.3094 94.363C53.4461 94.6458 53.6572 94.8863 53.9201 95.0587C54.1831 95.2311 54.488 95.3289 54.8022 95.3418L86.2632 96.6275C86.5637 96.6398 86.8559 96.7298 87.1112 96.8888C87.3664 97.0478 87.5759 97.2702 87.7191 97.5343C87.8623 97.7983 87.9342 98.0949 87.9279 98.3949C87.9215 98.6949 87.837 98.988 87.6828 99.2453L51.9253 158.9C50.8889 160.629 53.1533 162.433 54.6124 161.04L129.956 89.1381C130.193 88.9118 130.36 88.623 130.439 88.3051C130.518 87.9873 130.505 87.6534 130.401 87.3425C130.297 87.0316 130.107 86.7564 129.853 86.5488C129.599 86.3413 129.291 86.21 128.965 86.1702L92.4426 81.7097C92.1163 81.6699 91.808 81.5383 91.5535 81.3303C91.2991 81.1224 91.109 80.8466 91.0055 80.5351C90.902 80.2237 90.8893 79.8895 90.9689 79.5714C91.0485 79.2533 91.2172 78.9644 91.4551 78.7386L139.081 33.534C139.345 33.2832 139.523 32.9556 139.59 32.5978C139.656 32.2399 139.608 31.87 139.452 31.5409C139.295 31.2117 139.039 30.94 138.719 30.7644C138.399 30.5889 138.032 30.5184 137.67 30.5631L95.9229 35.7151C95.6887 35.744 95.4628 35.8204 95.2593 35.9395C95.0558 36.0587 94.8789 36.2181 94.7394 36.408V36.408Z" fill="#20766A"/>
</g>
<defs>
<filter id="filter0_d_43_222" x="42.7942" y="28.55" width="106.825" height="142.987" filterUnits="userSpaceOnUse" color-interpolation-filters="sRGB">
<feFlood flood-opacity="0" result="BackgroundImageFix"/>
<feColorMatrix in="SourceAlpha" type="matrix" values="0 0 0 0 0 0 0 0 0 0 0 0 0 0 0 0 0 0 127 0" result="hardAlpha"/>
<feOffset dx="4" dy="4"/>
<feGaussianBlur stdDeviation="3"/>
<feColorMatrix type="matrix" values="0 0 0 0 0 0 0 0 0 0 0 0 0 0 0 0 0 0 0.25 0"/>
<feBlend mode="normal" in2="BackgroundImageFix" result="effect1_dropShadow_43_222"/>
<feBlend mode="normal" in="SourceGraphic" in2="effect1_dropShadow_43_222" result="shape"/>
</filter>
<clipPath id="clip0_43_222">
<rect x="116" y="137.775" width="50.9457" height="50.9457" fill="white"/>
</clipPath>
<clipPath id="clip1_43_222">
<rect width="50.9457" height="50.9457" fill="white" transform="translate(118.054 137.775)"/>
</clipPath>
<clipPath id="clip2_43_222">
<rect width="50.9457" height="50.9457" fill="white" transform="translate(118.054 137.775)"/>
</clipPath>
<clipPath id="clip3_43_222">
<rect y="50.7751" width="27" height="27" fill="white"/>
</clipPath>
<clipPath id="clip4_43_222">
<rect width="27" height="27" fill="white" transform="translate(1.08868 50.7751)"/>
</clipPath>
<clipPath id="clip5_43_222">
<rect width="27" height="27" fill="white" transform="translate(1.08868 50.7751)"/>
</clipPath>
<clipPath id="clip6_43_222">
<rect x="153" width="31.7209" height="31.7209" fill="white"/>
</clipPath>
<clipPath id="clip7_43_222">
<rect width="31.7209" height="31.7209" fill="white" transform="translate(154.279)"/>
</clipPath>
<clipPath id="clip8_43_222">
<rect width="31.7209" height="31.7209" fill="white" transform="translate(154.279)"/>
</clipPath>
</defs>
</svg>
