<svg width="692" height="250" viewBox="0 0 692 250" fill="none" xmlns="http://www.w3.org/2000/svg">
<path d="M475.091 195.383C469.035 204.629 459.718 211.253 448.996 213.933C438.381 216.538 423.576 217.323 414.059 211.948C410.822 217.555 406.313 222.322 400.895 225.866C395.478 229.41 389.303 231.632 382.87 232.351C376.24 232.921 369.567 231.97 363.361 229.571C357.154 227.172 351.577 223.388 347.054 218.507C338.257 226.523 319.368 224.233 312.464 214.538C297.747 226.485 270.974 226.38 257.088 213.476C237.716 227.952 213.431 234.236 189.469 230.973C165.014 227.233 142.924 214.258 127.75 194.72C96.089 216.065 50.6473 214.264 20.7756 190.48C8.67306 180.843 -1.36603 166.459 0.152432 151.063C1.68818 135.494 14.5407 123.326 28.297 115.875C35.2898 111.703 43.2021 109.316 51.3356 108.925C59.44 108.896 71.6192 110.062 75.9759 116.895C76.6244 114.031 78.0811 111.414 80.1733 109.353C82.2654 107.293 84.9049 105.876 87.7784 105.272C93.5229 104.158 101.614 105.132 104.867 109.996C103.726 107.056 103.557 103.828 104.386 100.786C105.215 97.7439 106.998 95.0477 109.473 93.0935C114.491 89.3102 125.178 89.7681 130.098 93.6775C128.692 85.4227 130.215 76.9362 134.402 69.6845C138.589 62.4329 145.177 56.8716 153.029 53.9615C168.848 48.6156 191.062 53.6336 198.387 68.6385C199.168 54.3652 204.095 40.6297 212.565 29.1148C221.035 17.5999 232.68 8.80587 246.073 3.81011C259.627 -0.733306 274.211 -1.22454 288.039 2.3966C301.868 6.01775 314.34 13.594 323.927 24.197C333.152 35.1159 338.993 48.4888 340.732 62.6772C342.471 76.8655 340.034 91.2531 333.719 104.077C346.83 92.388 359.593 81.9124 376.638 77.6698C393.683 73.427 412.919 75.6436 426.793 86.4163C440.666 97.1892 447.584 117.289 440.523 133.372C448.608 129.346 463.041 131.143 470.458 136.296C474.148 138.927 477.082 142.481 478.967 146.602C480.852 150.723 481.622 155.266 481.2 159.778C493.061 167.253 509.324 166.578 522.794 162.69C536.265 158.802 549.416 152.86 563.428 152.392C587.819 151.577 610.25 167.422 634.653 167.673C648.461 167.815 661.763 162.944 675.336 160.402C688.909 157.861 704.253 158.093 714.884 166.906C689.967 165.764 666.261 185.19 641.694 189.508C607.838 195.46 572.742 174.488 539.576 183.527C528.531 186.537 518.622 192.704 507.874 196.645C497.126 200.585 484.753 201.523 475.091 195.383Z" fill="#E0F9FF"/>
<path d="M445.18 205.752C432.471 204.211 421.302 196.933 412.118 188.014C405.691 197.592 396.092 205.587 384.738 207.618C373.385 209.649 359.861 203.615 355.003 193.154C352.984 195.991 350.331 198.319 347.256 199.954C344.182 201.589 340.768 202.486 337.287 202.575C330.345 202.692 322.399 199.929 318.23 194.377C313.952 198.783 308.522 201.896 302.559 203.36C296.596 204.825 290.341 204.582 284.51 202.659C279.758 201.011 275.496 198.197 272.114 194.474C268.733 190.751 266.341 186.238 265.157 181.35C265.913 181.3 266.672 181.301 267.426 181.226C275.688 180.419 283.732 178.103 291.157 174.391C298.539 170.792 304.987 165.53 309.994 159.02C303.031 162.423 295.809 165.268 288.395 167.527C281.246 169.661 273.91 171.114 266.487 171.865C259.062 172.614 251.583 172.65 244.152 171.975C236.436 171.237 228.793 169.879 221.296 167.914C226.001 172.05 231.438 175.272 237.326 177.412L237.298 177.415C190.661 226.867 162.535 183.753 162.535 183.753C162.823 183.819 163.101 183.92 163.391 183.976C167.543 184.786 171.835 184.493 175.839 183.128C179.811 181.86 183.238 179.289 185.566 175.83C181.419 175.931 177.964 176.002 174.63 175.829C171.454 175.688 168.292 175.324 165.167 174.738C162.044 174.133 158.969 173.303 155.967 172.253C152.804 171.18 149.621 169.829 145.816 168.19C146.706 172.259 148.937 175.912 152.151 178.562C153.243 179.482 154.416 180.301 155.656 181.009C145.696 185.605 134.403 186.417 123.888 183.292C129.824 180.564 135.281 176.898 140.05 172.433C146.389 166.626 151.169 159.321 153.952 151.186C148.337 156.973 142.131 162.156 135.436 166.649C122.566 175.283 107.597 180.272 92.1199 181.084C84.0672 181.505 75.9926 181.073 68.0308 179.795C75.1395 184.626 83.3433 187.603 91.8958 188.454C95.9898 188.896 100.118 188.919 104.217 188.523C88.5795 196.852 70.7931 200.269 53.1828 198.327C38.2803 196.531 24.0875 190.943 11.9604 182.098C14.6455 185.146 17.5955 187.951 20.7759 190.479C50.6475 214.264 96.0892 216.065 127.75 194.72C142.924 214.259 165.014 227.234 189.469 230.973C213.431 234.236 237.716 227.952 257.088 213.476C270.974 226.38 297.747 226.485 312.464 214.538C319.368 224.233 338.257 226.523 347.054 218.507C351.577 223.388 357.154 227.172 363.361 229.571C369.567 231.97 376.24 232.921 382.87 232.351C389.303 231.632 395.478 229.41 400.896 225.866C406.313 222.322 410.822 217.555 414.059 211.948C423.576 217.323 438.381 216.538 448.996 213.933C455.877 212.209 462.237 208.839 467.529 204.114C460.251 206.074 452.666 206.63 445.18 205.752Z" fill="#C9E6ED"/>
<path d="M310.808 12.7048C301.427 6.34618 290.707 2.23583 279.48 0.693152C268.253 -0.849522 256.821 0.217019 246.073 3.80991C232.68 8.80572 221.035 17.5998 212.565 29.1148C204.095 40.6297 199.168 54.3653 198.387 68.6386C191.062 53.6334 168.848 48.6156 153.029 53.9614C152.717 54.0671 152.42 54.2091 152.112 54.3245C159.752 54.3068 167.279 56.1796 174.02 59.776C180.817 63.5526 186.574 68.9522 190.778 75.4936C194.982 82.0349 197.503 89.5148 198.114 97.2665C201.6 76.5347 210.082 56.9638 222.828 40.2458C235.341 23.8793 253.538 11.4069 273.861 8.03056C286.369 5.97792 299.205 7.60177 310.808 12.7048V12.7048Z" fill="#F2FDFF"/>
<path d="M436.978 97.9361C434.306 93.5126 430.855 89.6097 426.792 86.4163C412.919 75.6434 393.683 73.427 376.638 77.6696C362.148 81.2766 350.755 89.4036 339.609 98.9361C338.417 100.498 337.242 102.045 336.085 103.557C351.315 94.8624 368.358 89.8284 385.869 88.8528C403.379 87.8773 420.876 90.9869 436.978 97.9361V97.9361Z" fill="#F2FDFF"/>
<path d="M87.8537 113.303C91.3795 112.044 95.2248 112 98.7783 113.178C102.332 114.356 105.39 116.688 107.465 119.804C105.999 113.166 106.737 106.23 109.567 100.049C111.434 96.2574 114.223 92.9954 117.679 90.5624C114.759 90.6094 111.912 91.4873 109.473 93.0935C106.998 95.0476 105.215 97.7439 104.386 100.786C103.557 103.828 103.726 107.056 104.867 109.996C101.614 105.132 93.5229 104.159 87.7784 105.272C84.9049 105.876 82.2654 107.293 80.1733 109.353C78.0811 111.414 76.6244 114.031 75.9759 116.895C71.6192 110.062 59.44 108.896 51.3356 108.925C46.294 109.03 41.3145 110.06 36.6453 111.965C44.8734 111.563 53.0817 113.086 60.6178 116.414C68.1538 119.741 74.8097 124.781 80.0563 131.132C76.7697 124.431 80.9527 116.145 87.8537 113.303Z" fill="#F2FDFF"/>
<path d="M195.452 142.913C197.01 136.717 200.456 131.159 205.314 127.008C210.21 122.621 216.244 119.703 222.723 118.587C229.201 117.471 235.863 118.203 241.946 120.698C247.913 122.986 253.019 127.077 256.553 132.403C251.634 129.136 246.183 126.752 240.445 125.358C234.991 124.018 229.319 123.817 223.784 124.768C218.248 125.719 212.969 127.801 208.274 130.883C203.33 134.114 198.991 138.185 195.452 142.913V142.913Z" fill="#F2FDFF"/>
<path d="M238.495 94.5979C241.278 89.5907 245.452 85.4971 250.513 82.8121C255.645 79.9499 261.422 78.4447 267.299 78.439C273.175 78.4332 278.955 79.9271 284.093 82.7793C289.16 85.4564 293.34 89.5481 296.124 94.5567C291.803 91.4847 287.078 89.0235 282.083 87.2429C272.518 83.8621 262.083 83.8666 252.522 87.2556C247.529 89.0423 242.808 91.5133 238.495 94.5979V94.5979Z" fill="#F2FDFF"/>
<path d="M291.715 128.376C292.038 126.948 292.643 125.599 293.493 124.407C294.342 123.215 295.421 122.204 296.665 121.432C299.24 119.747 302.295 118.948 305.366 119.157C308.436 119.367 311.354 120.574 313.676 122.593C314.805 123.527 315.736 124.677 316.414 125.976C317.092 127.275 317.504 128.696 317.626 130.156C315.572 128.772 313.363 127.634 311.044 126.765C309.081 126.031 307.025 125.576 304.935 125.414C302.842 125.282 300.741 125.448 298.695 125.909C296.278 126.451 293.935 127.279 291.715 128.376V128.376Z" fill="#F2FDFF"/>
<path d="M347.665 159.021C350.269 154.294 354.306 150.517 359.195 148.231C364.175 145.753 369.751 144.722 375.288 145.255C380.825 145.789 386.101 147.866 390.517 151.249C394.88 154.428 398.118 158.913 399.763 164.054C396.281 160.568 392.279 157.643 387.899 155.386C379.585 151.104 369.947 150.17 360.965 152.775C356.234 154.151 351.746 156.258 347.665 159.021Z" fill="#F2FDFF"/>
<path d="M365.575 127.302C367.325 124.912 369.865 123.22 372.745 122.527C375.637 121.785 378.669 121.787 381.56 122.531C384.451 123.276 387.107 124.739 389.281 126.785C391.469 128.784 392.874 131.498 393.242 134.439C391.073 133.069 388.805 131.862 386.457 130.829C384.363 129.92 382.202 129.176 379.993 128.604C377.783 128.029 375.531 127.632 373.259 127.416C370.704 127.182 368.135 127.144 365.575 127.302V127.302Z" fill="#F2FDFF"/>
<path d="M112.093 146.171C113.178 139.562 116.172 133.415 120.706 128.486C125.25 123.334 131.075 119.476 137.592 117.302C144.108 115.128 151.083 114.715 157.81 116.106C164.397 117.326 170.482 120.451 175.312 125.093C169.53 122.742 163.404 121.345 157.173 120.96C145.143 120.206 133.29 124.155 124.115 131.973C119.361 136.02 115.301 140.816 112.093 146.171Z" fill="#F2FDFF"/>
<path d="M44.8161 161.072C45.6143 157.355 47.6279 154.009 50.539 151.563C53.4939 148.985 57.1089 147.282 60.9783 146.644C64.8476 146.007 68.818 146.46 72.4438 147.954C75.9876 149.338 78.9669 151.867 80.9074 155.139C77.7467 153.965 74.4645 153.149 71.1221 152.707C65.0239 151.879 58.8176 152.897 53.3031 155.629C50.2772 157.116 47.4299 158.942 44.8161 161.072V161.072Z" fill="#F2FDFF"/>
<path d="M612.911 153.358C623.251 158.541 634.991 160.231 646.373 158.177C657.754 156.123 668.163 150.435 676.038 141.966C655.676 148.868 634.402 152.707 612.911 153.358V153.358Z" fill="#E0F9FF"/>
<path d="M579.191 191.635C571.628 188.539 563.438 187.283 555.295 187.97C547.151 188.656 539.287 191.266 532.349 195.585C547.222 193.888 564.318 193.331 579.191 191.635Z" fill="#E0F9FF"/>
<path d="M256.693 226.66C238.222 238.091 217.029 244.372 195.312 244.849C206.869 250.121 219.905 251.188 232.166 247.865C243.768 244.264 250.405 237.055 256.693 226.66Z" fill="#C9E6ED"/>
<path d="M389.354 237.369C373.274 239.737 356.853 237.759 341.796 231.64C348.168 238.692 356.805 243.295 366.213 244.652C375.251 245.623 381.949 242.642 389.354 237.369Z" fill="#C9E6ED"/>
<path d="M123.506 208.947C109.416 217.049 93.4149 221.233 77.1624 221.065C85.6777 225.287 95.4011 226.401 104.651 224.212C113.415 221.8 118.553 216.569 123.506 208.947Z" fill="#C9E6ED"/>
</svg>
