<svg width="708" height="295" viewBox="0 0 708 295" fill="none" xmlns="http://www.w3.org/2000/svg">
<path d="M696.622 179.109C690.475 170.945 682.427 164.406 673.178 160.061C663.85 156.006 649.162 153.243 639.841 157.31C639.306 152.754 637.494 148.442 634.612 144.872C631.731 141.302 627.898 138.621 623.557 137.138C618.884 135.915 613.97 135.965 609.323 137.282C604.676 138.6 600.466 141.137 597.131 144.631C595.735 119.242 557.853 116.561 549.484 131.889C550.941 106.677 502.695 79.0158 474.616 98.8377C477.693 62.9431 454.221 27.8041 421.96 11.7714C389.697 -4.26138 350.636 -2.92064 316.925 9.78558C291.047 19.5398 266.708 36.7747 254.973 61.817C244.362 84.4576 246.704 113.9 263.292 132C259.152 130.218 254.583 129.681 250.143 130.454C246.516 131.051 243.154 132.729 240.496 135.266C237.837 137.804 236.005 141.085 235.239 144.679C223.43 137.106 203.984 142.61 199.006 155.726C192.616 148.625 184.385 143.432 175.225 140.722C166.065 138.012 156.333 137.891 147.109 140.372C137.306 142.854 128.319 147.846 121.033 154.856C113.746 161.867 108.411 170.654 105.552 180.354C92.4897 174.011 78.2881 171.031 64.202 174.559C51.8204 177.661 40.6657 187.447 37.7968 199.626L37.6528 199.728C26.0123 208.153 14.8762 217.962 1.17316 222.287C-11.8356 226.393 -25.8313 225.129 -39.4492 225.925C-53.0673 226.721 -67.7655 230.362 -76 241.237C-51.6426 230.815 -22.0314 249.479 4.34586 247C19.9087 245.537 34.0762 236.653 48.4539 230.112C49.376 231 50.3332 231.849 51.3248 232.645C62.9251 241.954 78.4244 245.385 93.2819 244.684C108.14 243.984 121.471 237.097 135.431 231.963C151.859 244.465 174.831 241.437 190.172 227.623C212.034 254.003 242.383 271.967 276.028 278.443C309.375 284.742 349.221 272.875 378.858 256.342C390.106 270.76 419.169 265.212 431.006 251.273C450.432 265.885 480.762 261.671 494.719 241.769C509.729 250.135 526.254 255.427 543.331 257.337C560.408 259.247 577.694 257.736 594.18 252.893C601.414 250.726 612.407 243.246 613.45 235.768C636.421 241.96 660.736 240.969 683.126 232.927C691.98 229.723 701.013 224.879 705.198 216.445C711.195 204.355 705.023 189.671 696.622 179.109Z" fill="#E0F9FF"/>
<path d="M35.2265 246.126C27.9342 251.705 19.334 255.323 10.2461 256.635C1.1583 257.946 -8.11403 256.908 -16.6863 253.618C-9.32762 261.596 0.282621 266.624 11.0558 265.305C21.8289 263.986 30.0098 255.643 35.2265 246.126Z" fill="#E0F9FF"/>
<path d="M705.198 216.445C706.144 214.514 706.81 212.459 707.176 210.341C695.734 220.356 681.499 226.624 666.386 228.302C646.267 230.418 625.021 222.708 609.845 209.33C604.031 219.268 595.782 227.561 585.876 233.427C575.969 239.293 564.731 242.539 553.223 242.858C530.278 243.24 506.521 229.592 494.5 210.046C488.98 219.564 481.896 228.675 472.065 233.615C462.233 238.555 447.544 236.652 439.611 229.028C436.021 235.363 430.599 240.464 424.057 243.661C417.515 246.857 410.159 248 402.955 246.939C395.886 245.578 389.404 242.085 384.38 236.93C379.357 231.774 376.033 225.203 374.856 218.101C362.231 229.431 347.337 237.941 331.166 243.065C314.994 248.189 297.917 249.81 281.071 247.819C264.156 245.473 247.929 239.576 233.454 230.514C218.98 221.452 206.586 209.431 197.087 195.24C188.735 204.826 177.633 212.425 165.124 214.695C152.614 216.965 138.626 214.03 130.252 204.463C122.062 215.631 111.146 224.513 98.5468 230.261C85.9471 236.01 72.0843 238.433 58.2817 237.299C69.0507 242.923 81.1588 245.478 93.2819 244.684C108.14 243.984 121.471 237.097 135.431 231.963C151.859 244.465 174.831 241.437 190.172 227.623C212.034 254.003 242.383 271.967 276.028 278.443C309.375 284.742 349.221 272.875 378.858 256.342C390.106 270.76 419.169 265.212 431.006 251.273C450.432 265.885 480.762 261.671 494.719 241.769C509.729 250.135 526.254 255.427 543.331 257.337C560.408 259.247 577.694 257.736 594.18 252.892C601.414 250.726 612.407 243.246 613.45 235.768C636.421 241.96 660.736 240.969 683.126 232.927C691.98 229.723 701.013 224.879 705.198 216.445Z" fill="#C9E6ED"/>
<path d="M390.257 152.089C387.084 144.386 381.622 137.843 374.61 133.346C367.598 128.848 359.374 126.613 351.05 126.941C342.726 127.27 334.703 130.147 328.068 135.183C321.432 140.219 316.503 147.172 313.947 155.101C335.243 137.466 366.498 137.945 390.257 152.089Z" fill="#F2FDFF"/>
<path d="M491.207 143.848C488.75 140.44 485.557 137.63 481.865 135.626C478.173 133.621 474.077 132.474 469.881 132.27C465.685 132.065 461.497 132.809 457.628 134.444C453.759 136.08 450.307 138.567 447.531 141.719C459.487 140.234 479.58 140.691 491.207 143.848Z" fill="#F2FDFF"/>
<path d="M533.98 173.474C526.103 166.522 516.074 162.491 505.576 162.058C495.078 161.625 484.751 164.817 476.329 171.098C495.547 168.758 515.019 169.56 533.98 173.474Z" fill="#F2FDFF"/>
<path d="M612.303 181.588C609.37 178.174 605.747 175.42 601.673 173.506C597.599 171.592 593.166 170.563 588.666 170.486C584.165 170.408 579.699 171.285 575.562 173.057C571.424 174.83 567.709 177.458 564.66 180.769C580.3 176.541 596.818 176.824 612.303 181.588V181.588Z" fill="#F2FDFF"/>
<path d="M279.758 167.383C276.626 165.212 273.095 163.68 269.37 162.875C265.644 162.07 261.796 162.008 258.046 162.694C254.297 163.379 250.719 164.797 247.519 166.867C244.318 168.937 241.558 171.619 239.396 174.758C252.471 170.549 266.04 168.07 279.758 167.383V167.383Z" fill="#F2FDFF"/>
<path d="M146.875 184.41C163.814 199.992 185.385 209.604 208.298 211.781C231.21 213.958 254.206 208.58 273.777 196.468C231.589 202.749 186.398 200.446 146.875 184.41Z" fill="#C9E6ED"/>
<path d="M423.455 199.818C417.697 208.176 410.113 215.113 401.277 220.106C392.441 225.099 382.585 228.016 372.456 228.636C362.326 229.256 352.187 227.564 342.808 223.686C333.429 219.808 325.056 213.848 318.321 206.255C350.504 224 394.281 222.167 423.455 199.818Z" fill="#C9E6ED"/>
<path d="M468.646 210.651C479.698 217.456 492.714 220.356 505.61 218.885C518.505 217.414 530.533 211.657 539.769 202.538C516.61 208.834 492.628 211.569 468.646 210.651V210.651Z" fill="#C9E6ED"/>
<path d="M549.484 131.889C550.941 106.677 502.695 79.0158 474.616 98.8377C477.692 62.9431 454.221 27.8041 421.96 11.7714C389.697 -4.26138 350.636 -2.92064 316.925 9.78558C304.423 14.413 292.681 20.8774 282.085 28.9659C302.128 18.7233 324.283 13.2936 346.791 13.1078C369.299 12.922 391.541 17.9851 411.75 27.8954C428.374 36.0252 443.665 47.6297 453.794 63.1164C463.922 78.6033 468.436 98.2449 463.554 116.094C477.707 105.876 498.389 100.944 514.496 107.672C522.541 111.134 529.587 116.56 534.988 123.454C540.39 130.347 543.973 138.487 545.41 147.126C551.346 139.358 562.578 133.995 572.14 131.962C579.109 130.514 586.333 130.871 593.126 133C582.905 118.872 556.329 119.352 549.484 131.889Z" fill="#F2FDFF"/>
<path d="M618.447 248.498C609.834 259.746 596.01 266.14 582.006 268.278C568.001 270.416 553.701 268.701 539.747 266.255C545.834 271.099 552.889 274.582 560.436 276.471C567.982 278.36 575.846 278.61 583.498 277.204C598.787 274.491 610.611 261.905 618.447 248.498Z" fill="#C9E6ED"/>
<path d="M372.742 270.471C353.298 282.505 330.988 289.116 308.127 289.618C320.293 295.169 334.016 296.292 346.923 292.794C359.137 289.003 366.124 281.414 372.742 270.471Z" fill="#C9E6ED"/>
</svg>
