<svg width="128" height="267" viewBox="0 0 128 267" fill="none" xmlns="http://www.w3.org/2000/svg">
<g clip-path="url(#clip0_44_274)">
<g style="mix-blend-mode:multiply">
<path d="M9.09736 259.252L112.341 208.4C115.941 206.627 121.753 206.627 125.33 208.4C128.907 210.173 128.888 213.045 125.287 214.818L22.0441 265.671C18.4474 267.442 12.6319 267.444 9.05502 265.671C5.47829 263.897 5.50077 261.023 9.09736 259.252Z" fill="#CCCCCC"/>
</g>
<path d="M0.00326572 67.3734L0.000980934 67.684C0.00348506 67.2294 0.0234023 66.8217 0.049723 66.4687L0.0520078 66.4218L0.0548409 66.3975C0.111881 65.6727 0.193415 65.2105 0.19863 65.1818C0.201067 65.1685 0.20451 65.1525 0.207014 65.139C0.222142 65.0473 0.238361 64.9533 0.256761 64.8544C0.293446 64.6431 0.332525 64.4293 0.376447 64.2066C0.37008 64.242 0.363604 64.2838 0.357182 64.3205C0.361532 64.2984 0.367631 64.2776 0.372091 64.2555C0.391253 64.1581 0.409921 64.0628 0.426359 63.9755L0.533257 63.5566C0.577776 63.3748 0.621919 63.194 0.671014 63.0164L0.734909 62.7659C0.832442 62.3845 1.00841 61.8853 1.13703 61.5107C1.1945 61.3432 1.25993 61.171 1.32454 60.9992C1.34769 60.9369 1.36922 60.8749 1.39301 60.8126C1.45924 60.6417 1.53234 60.4675 1.605 60.2935L1.60598 60.291L1.6074 60.2877C1.65638 60.1707 1.70466 60.054 1.75631 59.9358C2.58619 57.9831 3.68137 56.1 5.02447 54.3164C5.09544 54.2215 5.16615 54.1266 5.23854 54.0322C5.39295 53.8329 5.54589 53.6337 5.70738 53.4366C6.80497 52.0692 8.06866 50.7814 9.48222 49.5896C9.61901 49.4726 9.75442 49.359 9.87868 49.2625C9.88957 49.254 9.9029 49.2441 9.91395 49.2355C10.0196 49.1505 10.1317 49.0622 10.2501 48.9706L10.2606 48.9625C10.4999 48.7773 10.7486 48.5884 10.9548 48.4286L12.0682 47.6561C12.2153 47.5546 12.3891 47.4449 12.5674 47.3355C12.7537 47.2184 12.9203 47.1189 13.1188 47.007C13.1946 46.9631 13.2714 46.9185 13.3407 46.8788C13.6745 46.6877 14.1349 46.4569 14.4794 46.2745C14.3506 46.3398 14.1896 46.4214 14.0653 46.4843C14.1939 46.4192 14.3652 46.3322 14.4937 46.267L14.4945 46.2667L14.4937 46.267L14.4954 46.2663L14.4954 46.2662L23.4839 41.8292L32.4742 37.3914L41.4644 32.9536L50.4547 28.5159L59.4449 24.078L68.4351 19.6402L77.4254 15.2025L86.4156 10.7647L95.4058 6.32688L104.396 1.88901L104.4 1.88725L104.407 1.88358L104.421 1.87722C104.95 1.62439 105.42 1.41196 105.906 1.21768L105.95 1.19887L105.982 1.18735C106.289 1.06621 106.605 0.951333 106.949 0.838874L107.037 0.8073C107.333 0.706003 107.637 0.616755 107.946 0.539944C107.971 0.53284 107.994 0.525971 108.02 0.518817C108.187 0.473082 108.435 0.413461 108.728 0.351611C108.801 0.335497 108.873 0.320638 108.946 0.305551L108.98 0.297842L109.052 0.285639C110.425 0.00116479 111.859 -0.0705083 113.269 0.0749686C113.313 0.0791509 113.355 0.0819804 113.4 0.0867176L113.381 0.0845347L113.407 0.0873688C113.459 0.0928948 113.513 0.10037 113.565 0.106547L113.709 0.123771C113.727 0.126234 113.749 0.13032 113.768 0.133058L113.771 0.133429C113.787 0.135658 113.801 0.137052 113.815 0.139143C114.052 0.172015 114.294 0.21 114.542 0.260426C114.778 0.308532 114.983 0.355055 115.161 0.398332L115.197 0.40627C115.206 0.408641 115.219 0.412356 115.228 0.414818C115.642 0.51734 115.889 0.597065 115.948 0.617266C116.09 0.665138 116.206 0.704558 116.313 0.741475L116.556 0.824314C116.849 0.93371 116.984 0.985736 117.204 1.08401L117.257 1.10589C117.429 1.1858 117.657 1.29232 117.829 1.37222L118.553 1.73194L118.695 1.80394L118.852 1.88943C118.929 1.93061 119.005 1.97152 119.078 2.01248L119.242 2.1019C119.271 2.11908 119.307 2.1418 119.339 2.16082C119.424 2.21093 119.503 2.26015 119.583 2.3095L119.585 2.31088C119.672 2.36438 119.755 2.41718 119.835 2.46926L119.877 2.49578L119.905 2.51528C120.286 2.76637 120.644 3.03711 120.976 3.32554C121.039 3.38103 121.109 3.44241 121.182 3.50779C121.252 3.57052 121.32 3.63362 121.387 3.69705C121.401 3.71024 121.414 3.72148 121.428 3.73499L121.43 3.73652L121.43 3.73694C121.558 3.85841 121.695 3.9972 121.835 4.14731C121.977 4.29874 122.107 4.45192 122.235 4.60617C122.283 4.66407 122.336 4.72574 122.38 4.77983L122.417 4.82394L122.434 4.84716C122.496 4.92741 122.559 5.00721 122.618 5.08792C122.788 5.31641 122.91 5.50039 122.991 5.63439L122.995 5.64085C123.042 5.71491 123.084 5.78874 123.128 5.86284C123.163 5.9226 123.199 5.98394 123.235 6.04639L123.342 6.22827C123.354 6.25233 123.367 6.2807 123.38 6.30572C123.465 6.46184 123.547 6.61665 123.609 6.75502C123.699 6.95277 123.798 7.18327 123.891 7.41748C123.9 7.43879 123.911 7.46284 123.92 7.48346L123.936 7.53096C124.031 7.77794 124.118 8.02571 124.177 8.24264C124.226 8.42026 124.278 8.62317 124.328 8.82998C124.338 8.87024 124.349 8.91407 124.358 8.95219C124.427 9.24533 124.489 9.54239 124.525 9.79691C124.548 9.96184 124.568 10.1433 124.585 10.3308C124.602 10.4689 124.619 10.6174 124.639 10.7895C124.651 11.0998 124.667 11.5136 124.679 11.8239C124.681 11.9555 124.637 12.0851 124.551 12.1999C124.466 12.3146 124.342 12.4105 124.192 12.478C124.168 5.07673 118.037 2.08605 110.505 5.80545L20.6022 50.1834C13.0699 53.9003 6.97845 62.9244 7.00414 70.3246L7.00485 70.5282L7.00534 70.6846C7.00556 70.7502 7.00583 70.8244 7.00605 70.9078L7.00839 71.5905C7.00872 71.6969 7.00904 71.8087 7.00948 71.928L7.01131 72.4743C7.01245 72.8138 7.0137 73.191 7.01506 73.6058L7.01993 75.0731C7.02168 75.607 7.02359 76.1798 7.02559 76.7949L7.02995 78.0953C7.03088 78.3881 7.03185 78.6882 7.03289 78.9956L7.03528 79.7201C7.03871 80.7391 7.0423 81.8316 7.04617 82.9916L7.04976 84.0753C7.05134 84.5496 7.05293 85.0339 7.05455 85.5282L7.06247 87.9194C7.06349 88.2268 7.06453 88.5373 7.06557 88.851L7.08342 94.2389C7.085 94.7075 7.08658 95.1811 7.08815 95.66L7.09496 97.7194C7.09806 98.654 7.10121 99.6059 7.10443 100.575L7.1145 103.6C7.1164 104.192 7.11838 104.789 7.12043 105.391L7.20006 129.422C7.20981 132.352 7.21971 135.328 7.22961 138.332L7.24784 143.829C7.25018 144.543 7.25256 145.258 7.25497 145.974L7.26978 150.439C7.27092 150.781 7.27205 151.122 7.27315 151.464L7.28442 154.867C7.28823 155.999 7.29199 157.131 7.29569 158.262L7.29917 159.303C7.30407 160.79 7.30899 162.274 7.31392 163.756L7.32105 165.91C7.32714 167.745 7.3332 169.573 7.33923 171.391L7.36884 180.311C7.39709 188.833 7.42403 196.971 7.44847 204.339L7.45446 206.138C7.45783 207.16 7.46117 208.165 7.46447 209.155L7.47394 212.021C7.47623 212.712 7.47849 213.394 7.48074 214.067L7.48553 215.514C7.49179 217.389 7.49773 219.177 7.50333 220.877L7.50643 221.818C7.50915 222.636 7.51179 223.431 7.51435 224.202L7.51914 225.661C7.52036 226.027 7.52156 226.386 7.52274 226.74L7.53357 230.017C7.53439 230.26 7.53515 230.497 7.53596 230.732L7.53896 231.641C7.54048 232.09 7.54195 232.525 7.54331 232.939L7.54903 234.661C7.55076 235.192 7.5524 235.68 7.55387 236.127L7.55762 237.259C7.55828 237.454 7.55888 237.637 7.55945 237.806L7.56054 238.143C7.56146 238.413 7.56222 238.641 7.56288 238.826L7.56359 239.049L7.56408 239.205L7.56478 239.409C7.5883 246.814 13.7192 249.801 21.2518 246.082C21.2674 246.212 21.238 246.343 21.1665 246.461C21.095 246.58 20.9839 246.683 20.8438 246.76C20.1083 247.105 19.6851 247.292 19.2469 247.461C19.1659 247.494 19.0812 247.53 19.0058 247.56C18.662 247.698 18.3072 247.82 17.9432 247.924C17.8102 247.961 17.6656 248.001 17.5155 248.043C17.3705 248.085 17.2235 248.124 17.0757 248.163L16.8918 248.213C16.8633 248.219 16.8297 248.226 16.8 248.232C15.2979 248.612 13.7024 248.735 12.1293 248.592C11.7387 248.559 11.3512 248.508 10.9692 248.439L10.9132 248.43C10.8985 248.428 10.8796 248.423 10.8642 248.42C10.8293 248.414 10.7955 248.409 10.7604 248.402C10.5473 248.359 10.3666 248.319 10.2023 248.281L10.1184 248.263L10.0483 248.244C9.87804 248.202 9.7236 248.16 9.57531 248.116L9.48398 248.092C9.26333 248.025 8.97372 247.926 8.75574 247.853C8.52465 247.775 8.30016 247.687 8.08355 247.588L7.98041 247.544C7.80934 247.464 7.58129 247.358 7.41022 247.278L6.68627 246.918C6.49845 246.824 6.32433 246.73 6.15719 246.636C6.11359 246.613 6.06531 246.586 6.02585 246.565L5.92349 246.503C5.83548 246.451 5.75216 246.401 5.67057 246.351L5.6427 246.333C5.15042 246.032 4.69379 245.699 4.27792 245.338C4.23862 245.303 4.1867 245.256 4.13772 245.212C4.02891 245.117 3.92229 245.021 3.82018 244.924L3.81327 244.918L3.73701 244.84L3.72461 244.828C3.63486 244.741 3.54499 244.651 3.45431 244.556C3.12474 244.209 2.82527 243.847 2.55778 243.471C2.45518 243.329 2.36198 243.193 2.27818 243.061C2.23355 242.991 2.18923 242.921 2.14695 242.851L2.12671 242.82C2.13227 242.829 2.13808 242.836 2.14364 242.845C2.13852 242.837 2.13433 242.828 2.12921 242.82C2.04153 242.672 1.95695 242.526 1.87629 242.378L1.84184 242.318L1.82051 242.274C1.81344 242.261 1.80674 242.247 1.7998 242.234L1.79136 242.218C1.6788 242.002 1.57255 241.78 1.47165 241.544C1.37765 241.329 1.32295 241.195 1.25056 240.978L1.23959 240.949L1.23894 240.947L1.23932 240.948C1.14222 240.672 1.04915 240.373 0.959342 240.038C0.86856 239.701 0.764867 239.246 0.72209 238.901L0.720402 238.885C0.664885 238.543 0.636931 238.314 0.615137 237.991C0.61122 237.956 0.606918 237.919 0.603055 237.886C0.592168 237.613 0.578288 237.266 0.566535 236.971C0.565774 236.928 0.561417 236.889 0.561052 236.846V236.846L0.560668 236.825L0.504615 219.917L0.448561 203.009L0.392508 186.1L0.336454 169.192L0.280401 152.283L0.224244 135.375L0.168239 118.466L0.112186 101.558L0.0561326 84.6494L0 67.741V67.7409L0.00326572 67.3734ZM106.389 2.07244C106.402 2.07778 106.416 2.08303 106.429 2.08803L106.387 2.07152L106.389 2.07244ZM15.6814 46.2076L15.6754 46.2063L15.6813 46.2076H15.6814ZM15.4986 46.1736L15.4985 46.1735C15.4857 46.1717 15.4744 46.1715 15.4619 46.1698H15.4618C15.4744 46.1715 15.4859 46.1717 15.4986 46.1736V46.1736ZM15.2877 46.1522C15.3007 46.153 15.3146 46.1552 15.3278 46.1563H15.3282C15.3148 46.1552 15.3008 46.153 15.2877 46.1522L15.2877 46.1522ZM14.711 46.1897L14.7092 46.19L14.711 46.1897V46.1897ZM1.52942 69.3326C1.56513 69.3511 1.59691 69.3704 1.63376 69.3887L1.63441 69.389C1.59757 69.3707 1.56546 69.3512 1.52942 69.3325V69.3326ZM1.05155 69.055L1.04572 69.0515L1.05187 69.0553L1.05155 69.055ZM0.961377 237.615L0.955552 237.608H0.955485L0.961377 237.615Z" fill="#EAA928"/>
<path d="M20.8191 50.1045C13.1829 53.8645 7.00742 62.9931 7.03344 70.4789C7.22291 127.493 7.41237 184.507 7.60183 241.521C7.62573 249.011 13.8411 252.033 21.4776 248.271C51.8582 233.307 82.2388 218.343 112.619 203.379C120.256 199.619 126.431 190.494 126.405 183.004C126.216 125.991 126.026 68.9766 125.837 11.9627C125.813 4.47571 119.597 1.45049 111.961 5.21289C81.5803 20.1768 51.1996 35.1406 20.8191 50.1045Z" fill="#20766A"/>
<path d="M61.5125 207.709L80.4671 198.015C81.6883 197.414 82.682 197.897 82.686 199.094C82.6607 199.726 82.4499 200.346 82.0688 200.909C81.6876 201.472 81.1456 201.965 80.4815 202.352L61.5269 212.045C60.3057 212.647 59.3121 212.164 59.3081 210.967C59.3333 210.335 59.5441 209.715 59.9253 209.152C60.3064 208.589 60.8484 208.096 61.5125 207.709V207.709Z" fill="#F2F2F2"/>
<path d="M29.1913 57.3924C22.8692 60.5054 17.7564 68.063 17.778 74.2607C17.9349 121.464 18.0917 155.078 18.2486 202.281C18.2684 208.482 23.4142 210.984 29.7365 207.869C54.8892 195.48 80.0419 183.091 105.195 170.702C111.517 167.589 116.629 160.035 116.608 153.834C116.451 106.631 116.294 73.017 116.137 25.8141C116.118 19.6155 110.972 17.1108 104.649 20.2258C79.4967 32.6146 54.344 45.0035 29.1913 57.3924Z" fill="#F2F2F2"/>
<path d="M66.4822 127.868C53.3116 134.355 42.5734 122.821 42.5305 109.91C42.4877 96.9988 42.4238 77.7584 66.2765 66.0097C90.1238 54.2637 90.1878 73.5041 90.2306 86.4152C90.2735 99.3264 79.6528 121.381 66.4822 127.868Z" fill="#EAA928"/>
<path d="M32.2499 154.926C34.4181 147.819 39.2114 143.676 41.8529 141.848C42.2879 141.544 42.8539 141.368 43.4474 141.352C44.0409 141.336 44.6222 141.481 45.0848 141.761C50.1554 144.586 60.0936 142.186 66.5193 139.021C73.3572 135.653 84.1546 127.509 88.8036 119.168C88.9514 118.88 89.1802 118.619 89.4744 118.403C89.7685 118.187 90.1211 118.022 90.508 117.918C93.1213 117.279 99.133 116.39 100.782 121.171C102.414 125.912 105.265 134.193 106.491 137.756C106.667 138.231 106.644 138.736 106.425 139.202C106.206 139.667 105.802 140.071 105.267 140.357L31.1246 176.876C29.1467 177.85 26.7421 176.39 27.1822 174.478C28.3518 169.398 30.3025 161.305 32.2499 154.926Z" fill="#EAA928"/>
<path d="M86.6698 47.728L102.145 40.1057C103.92 39.2312 105.37 39.9359 105.376 41.6823L105.435 59.617C105.441 61.3632 104.001 63.4911 102.225 64.3657C100.444 65.243 98.9947 64.5385 98.989 62.7921L98.9397 48.0144L86.6907 54.0476C84.9094 54.9249 83.4599 54.226 83.4542 52.4797C83.4482 50.7333 84.8883 48.6053 86.6698 47.728Z" fill="#20766A"/>
<path d="M86.9221 123.653L99.1711 117.62L99.122 102.842C99.1162 101.096 100.556 98.9681 102.338 98.0907C104.113 97.216 105.563 97.9207 105.568 99.6669L105.628 117.602C105.634 119.348 104.194 121.476 102.418 122.35L86.943 129.973C85.1617 130.85 83.7121 130.146 83.7064 128.399C83.7006 126.653 85.1406 124.531 86.9221 123.653Z" fill="#20766A"/>
<path d="M30.345 75.4705L45.8144 67.8511C47.5959 66.9737 49.0454 67.6785 49.0512 69.4248C49.0569 71.171 47.6169 73.2933 45.8355 74.1707L33.5864 80.204L33.6355 94.9818C33.6415 96.7279 32.2013 98.8559 30.4258 99.7304C28.6445 100.608 27.1948 99.9033 27.189 98.1569L27.1296 80.2224C27.1236 78.4758 28.5638 76.3478 30.345 75.4705Z" fill="#20766A"/>
<path d="M30.5379 133.455C32.3133 132.581 33.7628 133.286 33.7686 135.032L33.8179 149.81L46.0669 143.776C47.8481 142.899 49.2976 143.598 49.3034 145.344C49.3094 147.09 47.8692 149.218 46.0877 150.096L30.6183 157.715C28.8371 158.593 27.3876 157.888 27.3816 156.142L27.3221 138.207C27.3164 136.461 28.7564 134.333 30.5379 133.455Z" fill="#20766A"/>
</g>
<defs>
<clipPath id="clip0_44_274">
<rect width="128" height="267" fill="white"/>
</clipPath>
</defs>
</svg>
