<svg width="26" height="26" viewBox="0 0 26 26" fill="none" xmlns="http://www.w3.org/2000/svg">
<path d="M13 0.199951C5.93121 0.199951 0.200012 5.93116 0.200012 13C0.200012 18.9979 4.33014 24.0165 9.89811 25.4053C9.83841 25.2325 9.80001 25.032 9.80001 24.7835V22.5958C9.28051 22.5958 8.41011 22.5958 8.19151 22.5958C7.31571 22.5958 6.53708 22.2192 6.15948 21.5195C5.74027 20.7419 5.66774 19.5526 4.62881 18.8251C4.32054 18.583 4.55521 18.3067 4.91041 18.344C5.56641 18.5296 6.11041 18.9796 6.62241 19.6474C7.13231 20.3162 7.37231 20.4678 8.32481 20.4678C8.78671 20.4678 9.47791 20.441 10.1285 20.3386C10.4784 19.45 11.0832 18.6319 11.8224 18.2458C7.56001 17.8074 5.52588 15.6869 5.52588 12.808C5.52588 11.5685 6.05388 10.3696 6.95094 9.35945C6.65654 8.35675 6.28641 6.31196 7.06401 5.53329C8.98191 5.53329 10.1413 6.77702 10.4197 7.11305C11.3755 6.78556 12.4251 6.59996 13.528 6.59996C14.6331 6.59996 15.6869 6.78556 16.6448 7.11515C16.92 6.78129 18.0805 5.53329 20.0027 5.53329C20.7835 6.31302 20.4091 8.36635 20.1115 9.36685C21.0032 10.3749 21.528 11.5707 21.528 12.808C21.528 15.6848 19.4971 17.8043 15.2411 18.2448C16.4123 18.856 17.2667 20.5734 17.2667 21.8672V24.7835C17.2667 24.8944 17.2421 24.9744 17.2293 25.0694C22.2171 23.3211 25.8 18.5851 25.8 13C25.8 5.93116 20.0688 0.199951 13 0.199951Z" fill="#F3F3F3"/>
</svg>
