<svg width="28" height="24" viewBox="0 0 28 24" fill="none" xmlns="http://www.w3.org/2000/svg">
<path d="M27.8667 3.39943C26.8459 3.85276 25.7493 4.15783 24.5984 4.29543C25.7739 3.59143 26.6752 2.47676 27.0997 1.14769C26.0011 1.79943 24.7829 2.27303 23.4859 2.52903C22.448 1.42289 20.9696 0.731689 19.3333 0.731689C16.1909 0.731689 13.6437 3.27996 13.6437 6.42126C13.6437 6.86716 13.6949 7.30236 13.7909 7.71726C9.0624 7.48046 4.8704 5.21489 2.06293 1.77169C1.5744 2.61223 1.29386 3.58929 1.29386 4.63356C1.29386 6.60686 2.2976 8.34876 3.824 9.36846C2.89173 9.33866 2.01386 9.08266 1.24693 8.65706C1.24693 8.68156 1.24693 8.70396 1.24693 8.72846C1.24693 11.4859 3.20746 13.7856 5.8112 14.3072C5.3344 14.4373 4.83093 14.5067 4.31146 14.5067C3.9456 14.5067 3.58826 14.4704 3.2416 14.4053C3.96586 16.6656 6.0672 18.3115 8.5568 18.3573C6.61013 19.8837 4.1568 20.7936 1.49013 20.7936C1.03146 20.7936 0.578133 20.7669 0.132263 20.7136C2.65066 22.3275 5.64053 23.2693 8.8544 23.2693C19.3205 23.2693 25.0421 14.5995 25.0421 7.08046C25.0421 6.83406 25.0368 6.58876 25.0261 6.34446C26.1387 5.54129 27.104 4.53969 27.8667 3.39943Z" fill="#F3F3F3"/>
</svg>
