<svg width="129" height="124" viewBox="0 0 129 124" fill="none" xmlns="http://www.w3.org/2000/svg">
<g clip-path="url(#clip0_31_238)">
<path d="M124 50.7172C124 48.5081 122.209 46.7172 120 46.7172H81.2829C79.0738 46.7172 77.2829 44.9264 77.2829 42.7172V4C77.2829 1.79086 75.492 0 73.2829 0H50.7173C48.5081 0 46.7173 1.79086 46.7173 4V42.7172C46.7173 44.9264 44.9264 46.7172 42.7173 46.7172H4C1.79086 46.7172 0 48.5081 0 50.7172V73.2823C0 75.4914 1.79086 77.2823 4 77.2823H42.7173C44.9264 77.2823 46.7173 79.0731 46.7173 81.2823V120C46.7173 122.209 48.5081 124 50.7173 124H73.2829C75.492 124 77.2829 122.209 77.2829 120V81.2823C77.2829 79.0731 79.0738 77.2823 81.2829 77.2823H120C122.209 77.2823 124 75.4914 124 73.2823V50.7172Z" fill="#EAA928"/>
</g>
<g clip-path="url(#clip1_31_238)">
<path d="M129 50.7172C129 48.5081 127.209 46.7172 125 46.7172H86.2829C84.0738 46.7172 82.2829 44.9264 82.2829 42.7172V4C82.2829 1.79086 80.492 0 78.2829 0H55.7173C53.5081 0 51.7173 1.79086 51.7173 4V42.7172C51.7173 44.9264 49.9264 46.7172 47.7173 46.7172H9C6.79086 46.7172 5 48.5081 5 50.7172V73.2823C5 75.4914 6.79086 77.2823 9 77.2823H47.7173C49.9264 77.2823 51.7173 79.0731 51.7173 81.2823V120C51.7173 122.209 53.5081 124 55.7173 124H78.2829C80.492 124 82.2829 122.209 82.2829 120V81.2823C82.2829 79.0731 84.0738 77.2823 86.2829 77.2823H125C127.209 77.2823 129 75.4914 129 73.2823V50.7172Z" fill="#35958A"/>
</g>
<g style="mix-blend-mode:multiply" opacity="0.5" clip-path="url(#clip2_31_238)">
<path d="M129 50.7172C129 48.5081 127.209 46.7172 125 46.7172H86.2829C84.0738 46.7172 82.2829 44.9264 82.2829 42.7172V4C82.2829 1.79086 80.492 0 78.2829 0H55.7173C53.5081 0 51.7173 1.79086 51.7173 4V42.7172C51.7173 44.9264 49.9264 46.7172 47.7173 46.7172H9C6.79086 46.7172 5 48.5081 5 50.7172V73.2823C5 75.4914 6.79086 77.2823 9 77.2823H47.7173C49.9264 77.2823 51.7173 79.0731 51.7173 81.2823V120C51.7173 122.209 53.5081 124 55.7173 124H78.2829C80.492 124 82.2829 122.209 82.2829 120V81.2823C82.2829 79.0731 84.0738 77.2823 86.2829 77.2823H125C127.209 77.2823 129 75.4914 129 73.2823V50.7172Z" fill="#35958A"/>
</g>
<defs>
<clipPath id="clip0_31_238">
<rect width="124" height="124" fill="white"/>
</clipPath>
<clipPath id="clip1_31_238">
<rect width="124" height="124" fill="white" transform="translate(5)"/>
</clipPath>
<clipPath id="clip2_31_238">
<rect width="124" height="124" fill="white" transform="translate(5)"/>
</clipPath>
</defs>
</svg>
